<svg width="204" height="62" viewBox="0 0 204 62" fill="none" xmlns="http://www.w3.org/2000/svg">
<path d="M195.843 48.5471L200.94 45.8795L195.231 45.0951L197.4 39.8099L192.519 42.8455L190.877 37.4135L188.982 42.8455L184.099 39.8099L186.232 45H3.06006V49.6978H184.605L181.791 52.7784L187.425 51.5811L187.212 57.2827L190.877 52.7041L194.29 57.2827L194.075 51.5811L199.712 52.7784L195.843 48.5471Z" fill="white"/>
<path d="M6.23068 21.3799L6.23242 35.2987H11.0451V37.6001H3.75805V21.3799H6.23068Z" fill="white"/>
<path d="M23.9282 33.6591H16.9169L15.1004 37.6001H12.4271L20.5307 20.3605L28.3517 37.6001H25.647L23.9282 33.6591ZM22.9196 31.3611L20.4906 25.8444L17.9447 31.3611H22.9196Z" fill="white"/>
<path d="M39.6626 23.7849L37.6542 24.9633C37.2825 24.3171 36.9265 23.899 36.5862 23.7003C36.1039 23.4439 35.5572 23.3307 35.0115 23.3742C34.4659 23.4177 33.9445 23.6161 33.5098 23.9456C33.2929 24.1159 33.1186 24.3334 33.0003 24.5812C32.8819 24.829 32.8228 25.1004 32.8276 25.3745C32.8276 26.164 33.4278 26.8033 34.6144 27.2854L36.2442 27.9471C37.5756 28.481 38.5476 29.1289 39.1618 29.9012C39.776 30.6735 40.0849 31.6082 40.0849 32.7226C40.0849 34.2137 39.5876 35.4473 38.5825 36.4235C38.0869 36.9065 37.4983 37.286 36.8518 37.5394C36.2052 37.7929 35.5138 37.9152 34.8186 37.899C33.3947 37.899 32.2203 37.4739 31.2937 36.636C30.3672 35.798 29.8122 34.6266 29.5889 33.1131L32.0894 32.5671C32.2046 33.5191 32.4053 34.1774 32.6862 34.5385C33.194 35.2417 33.9391 35.5959 34.9111 35.5959C35.2675 35.6061 35.6221 35.5428 35.9525 35.4102C36.283 35.2775 36.5819 35.0784 36.8305 34.8253C37.0831 34.5702 37.2807 34.267 37.4115 33.9341C37.5423 33.6012 37.6035 33.2455 37.5913 32.8885C37.5941 32.5956 37.5505 32.3041 37.4622 32.0246C37.3709 31.7601 37.23 31.5151 37.0469 31.3024C36.8376 31.0609 36.5929 30.8518 36.321 30.6821C35.9837 30.4671 35.6274 30.2826 35.2566 30.131L33.6861 29.4796C31.4409 28.542 30.3183 27.1702 30.3183 25.3641C30.3089 24.783 30.4308 24.2071 30.6751 23.6786C30.9193 23.1501 31.2797 22.6823 31.73 22.3094C32.674 21.4836 33.8414 21.0723 35.2461 21.0723C37.1307 21.0723 38.6046 21.9788 39.6679 23.7918" fill="white"/>
<path d="M52.106 23.6795H45.5414V27.5773H51.9176V29.877H45.5414V35.2987H52.106V37.6001H43.0688V21.3799H52.106V23.6795Z" fill="white"/>
<path d="M60.9077 30.6873L65.9681 37.5983H62.951L58.2728 30.9603H57.8295V37.5983H55.3534V21.3782H58.2518C60.4121 21.3782 61.9791 21.7825 62.9406 22.5876C64.0027 23.486 64.5331 24.6701 64.532 26.1399C64.5565 27.2122 64.205 28.2599 63.5374 29.1047C62.8778 29.9243 61.946 30.4857 60.9077 30.689M57.8295 28.8282H58.613C60.9525 28.8282 62.1233 27.9419 62.1257 26.1692C62.1257 24.5106 60.9868 23.6813 58.709 23.6813H57.8365L57.8295 28.8282Z" fill="white"/>
<path d="M75.1432 37.6001V21.3799H78.5808C80.2263 21.3799 81.5298 21.5406 82.4825 21.8619C83.5228 22.1858 84.4768 22.736 85.2745 23.4722C86.9613 24.9961 87.8053 27.002 87.8064 29.49C87.8076 31.9779 86.9276 33.9937 85.1663 35.5371C84.3618 36.2642 83.41 36.8132 82.3743 37.1474C81.4728 37.4503 80.1931 37.6006 78.5354 37.5983L75.1432 37.6001ZM77.6141 35.3073H78.7291C79.6638 35.3292 80.5966 35.2128 81.4966 34.9618C82.2359 34.7129 82.9154 34.3159 83.4929 33.7955C84.7144 32.6932 85.3199 31.2644 85.3199 29.4986C85.3199 27.7328 84.7178 26.2746 83.5121 25.1689C82.4313 24.184 80.837 23.6905 78.7291 23.6882H77.6141V35.3073Z" fill="white"/>
<path d="M99.9602 23.6795H93.3921V27.5773H99.7682V29.877H93.3921V35.2987H99.9602V37.6001H90.9195V21.3799H99.9602V23.6795Z" fill="white"/>
<path d="M103.206 37.6001V20.2776L115.154 32.65V21.3782H117.625V38.5849L105.677 26.2418V37.6001H103.206Z" fill="white"/>
<path d="M126.07 23.6795V37.6001H123.598V23.6795H119.832V21.3799H129.825V23.6795H126.07Z" fill="white"/>
<path d="M134.504 21.3782H132.031V37.6001H134.504V21.3782Z" fill="white"/>
<path d="M147.703 23.7849L145.698 24.9633C145.324 24.3171 144.967 23.899 144.626 23.7003C144.144 23.4439 143.597 23.3307 143.052 23.3742C142.506 23.4177 141.985 23.6161 141.55 23.9456C141.334 24.1163 141.16 24.334 141.042 24.5817C140.925 24.8295 140.866 25.1007 140.871 25.3745C140.871 26.164 141.464 26.8033 142.653 27.2854L144.288 27.9471C145.617 28.481 146.589 29.1289 147.204 29.9012C147.818 30.6735 148.128 31.6082 148.128 32.7226C148.128 34.2131 147.626 35.4467 146.623 36.4235C146.126 36.9074 145.537 37.2874 144.89 37.5409C144.242 37.7944 143.549 37.9162 142.853 37.899C141.433 37.899 140.257 37.4739 139.334 36.636C138.411 35.798 137.851 34.6266 137.625 33.1131L140.129 32.5671C140.246 33.5197 140.443 34.1768 140.721 34.5385C141.231 35.2417 141.976 35.5959 142.949 35.5959C143.306 35.6052 143.66 35.5416 143.99 35.409C144.321 35.2764 144.62 35.0777 144.869 34.8253C145.121 34.5701 145.319 34.267 145.451 33.9341C145.582 33.6013 145.644 33.2456 145.633 32.8885C145.637 32.5954 145.593 32.3036 145.502 32.0246C145.412 31.7602 145.271 31.5152 145.089 31.3024C144.879 31.0613 144.634 30.8523 144.363 30.6821C144.026 30.4688 143.671 30.2844 143.302 30.131L141.719 29.4796C139.477 28.542 138.356 27.1702 138.355 25.3641C138.346 24.7828 138.468 24.2069 138.713 23.6785C138.957 23.15 139.318 22.6822 139.768 22.3094C140.709 21.4836 141.879 21.0712 143.277 21.0723C145.168 21.0723 146.643 21.9788 147.703 23.7918" fill="white"/>
<path d="M155.935 23.6795V37.6001H153.463V23.6795H149.695V21.3799H159.692V23.6795H155.935Z" fill="white"/>
<path d="M167.449 30.6873L172.52 37.5983H169.496L164.819 30.962H164.374V37.6001H161.898V21.3782H164.795C166.958 21.3782 168.523 21.7813 169.487 22.5876C170.548 23.486 171.078 24.6701 171.077 26.1399C171.102 27.2129 170.749 28.2611 170.078 29.1047C169.42 29.9253 168.488 30.4869 167.449 30.689M164.372 28.8282H165.158C167.498 28.8282 168.669 27.9419 168.669 26.1692C168.669 24.5106 167.529 23.6813 165.25 23.6813H164.378L164.372 28.8282Z" fill="white"/>
<path d="M177.571 30.5923L172.223 21.3782H175.067L178.81 27.8624L182.567 21.3782H185.41L180.042 30.5923V37.6001H177.571V30.5923Z" fill="white"/>
<path d="M11.2684 6.56438V15.4917H9.68049V6.56438H7.26544V5.08715H13.6765V6.56438H11.2684Z" fill="white"/>
<path d="M20.8902 6.56438H16.6778V9.06444H20.7663V10.5399H16.6778V14.0145H20.8902V15.4917H15.0934V5.08715H20.8902V6.56438Z" fill="white"/>
<path d="M22.9737 15.4917V4.38049L30.6341 12.3195V5.08715H32.2221V16.1275L24.5564 8.2092V15.4917H22.9737Z" fill="white"/>
<path d="M34.7418 15.4917V4.38049L42.404 12.3195V5.08715H43.9919V16.1275L36.3262 8.2092V15.4917H34.7418Z" fill="white"/>
<path d="M52.3067 6.56438H48.0943V9.06444H52.1811V10.5399H48.0943V14.0145H52.3067V15.4917H46.5099V5.08715H52.3067V6.56438Z" fill="white"/>
<path d="M60.3266 6.62658L59.0423 7.38161C58.8032 6.97213 58.5746 6.6905 58.3548 6.57474C58.0459 6.40988 57.6955 6.33685 57.3457 6.36443C56.9959 6.39202 56.6616 6.51904 56.383 6.73024C56.2441 6.83948 56.1326 6.9789 56.0569 7.1377C55.9813 7.2965 55.9436 7.47041 55.9467 7.64595C55.9467 8.15391 56.3289 8.56166 57.0914 8.87439L58.1384 9.30114C58.99 9.64669 59.6147 10.0579 60.0108 10.5486C60.4129 11.0671 60.6213 11.7075 60.6006 12.361C60.6143 12.8009 60.5355 13.2388 60.3691 13.6469C60.2026 14.055 59.9523 14.4244 59.6338 14.7315C59.317 15.0424 58.9398 15.2866 58.525 15.4493C58.1103 15.612 57.6665 15.6899 57.2206 15.6783C56.3907 15.7078 55.5814 15.4194 54.9608 14.8732C54.3792 14.3364 54.0133 13.5825 53.8632 12.6115L55.4686 12.266C55.5454 12.8793 55.671 13.3026 55.8525 13.5324C56.009 13.7263 56.2045 13.8858 56.4266 14.0008C56.6487 14.1158 56.8925 14.1839 57.1426 14.2006C57.3927 14.2173 57.6436 14.1824 57.8793 14.098C58.115 14.0136 58.3304 13.8816 58.5118 13.7104C58.6743 13.5459 58.8015 13.3507 58.8858 13.1363C58.97 12.9219 59.0096 12.6929 59.0022 12.4629C59.0038 12.2753 58.9749 12.0886 58.9167 11.9101C58.8601 11.7397 58.7706 11.5818 58.6532 11.4453C58.5182 11.2905 58.3606 11.1565 58.1855 11.0479C57.9687 10.9143 57.7411 10.7988 57.505 10.7024L56.4894 10.2842C55.0527 9.68528 54.3338 8.80585 54.3326 7.64595C54.3259 7.27242 54.4034 6.90211 54.5594 6.56198C54.7155 6.22184 54.9462 5.92046 55.2348 5.67977C55.8584 5.14454 56.6626 4.86142 57.4875 4.88673C58.6985 4.88673 59.6437 5.46783 60.3231 6.63003" fill="white"/>
<path d="M68.4547 6.62658L67.1721 7.38161C66.9313 6.97213 66.7027 6.6905 66.4846 6.57474C66.1748 6.40985 65.8236 6.33683 65.473 6.3644C65.1223 6.39198 64.7872 6.51899 64.5076 6.73024C64.3693 6.84001 64.2582 6.97953 64.1826 7.1382C64.107 7.29688 64.069 7.47053 64.0713 7.64595C64.0713 8.15391 64.4535 8.56166 65.2178 8.87439L66.2647 9.30114C67.118 9.64669 67.741 10.0579 68.1354 10.5486C68.5394 11.0663 68.7491 11.707 68.7286 12.361C68.7424 12.8009 68.6636 13.2388 68.4971 13.6469C68.3307 14.055 68.0803 14.4244 67.7619 14.7315C67.4458 15.0417 67.0698 15.2857 66.6564 15.449C66.243 15.6122 65.8006 15.6914 65.3556 15.6817C64.5229 15.713 63.7102 15.4245 63.0871 14.8766C62.5055 14.3399 62.1402 13.586 61.9913 12.615L63.5967 12.2694C63.6735 12.8828 63.7956 13.3061 63.9771 13.5359C64.1342 13.7293 64.3301 13.8883 64.5525 14.0029C64.7748 14.1175 65.0188 14.1851 65.2689 14.2015C65.5191 14.2179 65.7699 14.1828 66.0056 14.0982C66.2413 14.0137 66.4567 13.8816 66.6382 13.7104C66.8019 13.5467 66.93 13.3516 67.0146 13.1371C67.0993 12.9226 67.1386 12.6931 67.1303 12.4629C67.1319 12.2753 67.103 12.0886 67.0447 11.9101C66.9863 11.7398 66.8957 11.5821 66.7778 11.4453C66.644 11.2893 66.4862 11.1551 66.3101 11.0479C66.0943 10.9136 65.8672 10.798 65.6313 10.7024L64.6157 10.2842C63.1779 9.68528 62.4595 8.80585 62.4607 7.64595C62.4545 7.27308 62.5324 6.90353 62.6887 6.56427C62.8451 6.22501 63.076 5.9246 63.3646 5.68495C63.9878 5.14845 64.7919 4.86353 65.6174 4.88673C66.826 4.88673 67.7718 5.46783 68.4547 6.63003" fill="white"/>
<path d="M76.4414 6.56438H72.2273V9.06444H76.314V10.5399H72.2273V14.0145H76.4414V15.4917H70.6429V5.08715H76.4414V6.56438Z" fill="white"/>
<path d="M84.32 6.56438H80.1059V9.06444H84.1961V10.5399H80.1059V14.0145H84.32V15.4917H78.5214V5.08715H84.32V6.56438Z" fill="white"/>
<path d="M98.4665 5.64348V7.50255C97.5504 6.74061 96.6046 6.36223 95.6222 6.36223C95.1114 6.35339 94.6045 6.45131 94.1345 6.64958C93.6646 6.84786 93.2421 7.14204 92.8948 7.51291C92.53 7.8831 92.2435 8.32164 92.052 8.80285C91.8605 9.28406 91.768 9.79826 91.7797 10.3153C91.7672 10.8268 91.8595 11.3355 92.0512 11.8107C92.2428 12.2858 92.5298 12.7175 92.8948 13.0797C93.2472 13.4449 93.6724 13.7335 94.1434 13.9274C94.6144 14.1213 95.1209 14.2163 95.6309 14.2062C96.1191 14.2199 96.6045 14.1279 97.0531 13.9367C97.2887 13.8362 97.5148 13.7147 97.7284 13.5739C97.9858 13.4044 98.2323 13.2192 98.4665 13.0193V14.9198C97.5991 15.4198 96.6136 15.6838 95.61 15.6852C94.8971 15.6969 94.1892 15.5651 93.5293 15.2978C92.8694 15.0305 92.2712 14.6333 91.771 14.1302C91.2592 13.6406 90.8543 13.0521 90.5815 12.4013C90.3086 11.7504 90.1736 11.051 90.1848 10.3464C90.1717 9.04413 90.641 7.7822 91.504 6.79935C92.5952 5.52542 94.0052 4.89191 95.7339 4.89882C96.6968 4.90355 97.6408 5.16495 98.4665 5.65558" fill="white"/>
<path d="M106.268 6.56438H102.054V9.06444H106.144V10.5399H102.054V14.0145H106.268V15.4917H100.468V5.08715H106.268V6.56438Z" fill="white"/>
<path d="M108.35 15.4917V4.38049L116.012 12.3195V5.08715H117.598V16.1275L109.934 8.2092V15.4917H108.35Z" fill="white"/>
<path d="M123.015 6.56438V15.4917H121.43V6.56438H119.014V5.08715H125.425V6.56438H123.015Z" fill="white"/>
<path d="M132.64 6.56438H128.424V9.06444H132.516V10.5399H128.424V14.0145H132.64V15.4917H126.841V5.08715H132.64V6.56438Z" fill="white"/>
<path d="M138.28 11.0583L141.534 15.4917H139.596L136.592 11.2328H136.306V15.4917H134.722V5.08715H136.578C137.974 5.08715 138.971 5.34458 139.587 5.86464C139.92 6.14217 140.186 6.49135 140.363 6.88564C140.539 7.27992 140.623 7.70894 140.608 8.14009C140.625 8.82789 140.399 9.5 139.969 10.0406C139.547 10.5692 138.948 10.9303 138.28 11.0583ZM136.306 9.86612H136.812C138.311 9.86612 139.061 9.29711 139.063 8.1591C139.063 7.09595 138.333 6.56438 136.872 6.56438H136.306V9.86612Z" fill="white"/>
<path d="M149.055 6.62658L147.769 7.38161C147.528 6.97213 147.298 6.6905 147.08 6.57474C146.77 6.40994 146.42 6.33695 146.07 6.36453C145.72 6.39211 145.385 6.51909 145.106 6.73024C144.968 6.8401 144.857 6.97968 144.782 7.13836C144.707 7.29705 144.669 7.47065 144.672 7.64595C144.672 8.15391 145.052 8.56166 145.813 8.87439L146.86 9.30114C147.713 9.64669 148.336 10.0579 148.732 10.5486C149.134 11.0675 149.342 11.7076 149.322 12.361C149.336 12.8007 149.257 13.2385 149.091 13.6465C148.925 14.0546 148.675 14.424 148.357 14.7315C148.039 15.0423 147.662 15.2864 147.246 15.4491C146.831 15.6118 146.387 15.6898 145.94 15.6783C145.111 15.7074 144.302 15.419 143.682 14.8732C143.101 14.3364 142.735 13.5825 142.585 12.6115L144.192 12.266C144.265 12.8793 144.391 13.3026 144.572 13.5324C144.729 13.7269 144.925 13.8869 145.148 14.0023C145.37 14.1177 145.615 14.186 145.866 14.2027C146.117 14.2194 146.368 14.1843 146.604 14.0996C146.841 14.0148 147.057 13.8823 147.238 13.7104C147.401 13.5461 147.528 13.3508 147.612 13.1364C147.696 12.9219 147.735 12.6928 147.727 12.4629C147.73 12.2752 147.701 12.0884 147.642 11.9101C147.583 11.7406 147.494 11.5831 147.378 11.4453C147.243 11.2909 147.085 11.157 146.91 11.0479C146.694 10.9133 146.466 10.7977 146.23 10.7024L145.214 10.2842C143.778 9.68528 143.059 8.80585 143.058 7.64595C143.052 7.27302 143.13 6.90354 143.287 6.56435C143.444 6.22515 143.675 5.92475 143.963 5.68495C144.587 5.14804 145.392 4.86309 146.218 4.88673C147.428 4.88673 148.373 5.46783 149.055 6.63003" fill="white"/>
<path d="M160.788 6.56438H157.126V9.06444H160.657V10.5399H157.126V15.4917H155.539V5.08715H160.788V6.56438Z" fill="white"/>
<path d="M162.114 10.2428C162.106 9.53637 162.247 8.83607 162.527 8.18642C162.808 7.53678 163.221 6.95202 163.742 6.46935C164.251 5.96094 164.858 5.55969 165.527 5.28978C166.196 5.01986 166.913 4.88687 167.635 4.89882C168.353 4.88943 169.065 5.02562 169.727 5.299C170.39 5.57237 170.988 5.97714 171.487 6.48836C172.005 6.98233 172.415 7.5764 172.692 8.2338C172.969 8.89119 173.107 9.5979 173.097 10.3102C173.109 11.0202 172.971 11.7249 172.693 12.3794C172.414 13.0338 172.001 13.6236 171.48 14.1112C170.473 15.087 169.13 15.6477 167.722 15.6797C166.314 15.7118 164.947 15.2129 163.896 14.284C162.709 13.2566 162.116 11.9089 162.114 10.241M163.713 10.2583C163.696 10.7857 163.792 11.3105 163.994 11.7987C164.196 12.2869 164.5 12.7275 164.885 13.0918C165.615 13.8079 166.601 14.2081 167.628 14.2046C168.655 14.201 169.639 13.794 170.363 13.0728C170.732 12.7085 171.024 12.2739 171.219 11.7953C171.415 11.3167 171.51 10.8039 171.501 10.2877C171.514 9.7715 171.421 9.25803 171.228 8.7784C171.035 8.29877 170.745 7.86296 170.377 7.49737C169.642 6.77369 168.647 6.3675 167.61 6.3675C166.573 6.3675 165.579 6.77369 164.844 7.49737C164.474 7.85697 164.183 8.28788 163.988 8.76339C163.794 9.23891 163.7 9.7489 163.713 10.2618" fill="white"/>
<path d="M178.652 11.0583L181.904 15.4917H179.965L176.966 11.2328H176.685V15.4917H175.102V5.08715H176.959C178.347 5.08715 179.35 5.34631 179.967 5.86464C180.301 6.14243 180.566 6.49165 180.742 6.88587C180.919 7.2801 181.003 7.70899 180.988 8.14009C181.005 8.82789 180.779 9.5 180.349 10.0406C179.927 10.5688 179.328 10.9298 178.66 11.0583M176.685 9.86612H177.191C178.692 9.86612 179.442 9.29711 179.442 8.1591C179.442 7.09595 178.713 6.56438 177.254 6.56438H176.685V9.86612Z" fill="white"/>
</svg>
