<svg width="121" height="30" viewBox="0 0 121 30" fill="none" xmlns="http://www.w3.org/2000/svg">
<path d="M121 0H0V30H121V0Z" fill="black"/>
<path d="M64.043 24.255L64.357 29.431C62.726 29.817 61.053 29.998 59.377 29.971C54.21 29.971 51.455 27.794 51.455 22.49C51.455 18.333 51.534 13.765 51.573 11.265H48.896C48.896 10.137 48.896 8.52 48.896 7.343C52.916 6.676 54.181 4.402 54.779 0.01H59.2C59.043 1.824 58.906 4.451 58.906 6.235H63.602V11.265H58.838V20.324C58.838 23.833 59.543 24.794 61.965 24.794C62.692 24.793 63.407 24.608 64.043 24.255ZM88.71 18.637C88.71 16.676 88.71 14.049 88.71 14.049C88.71 8.167 86.132 5.51 78.828 5.51C74.73 5.51 71.808 6.225 67.23 6.225C67.485 10.363 67.494 15.471 67.475 18.627C67.455 21.784 67.367 27.608 67.23 29.471H75.073C74.896 27.608 74.73 22.245 74.759 18.627C74.759 16.569 74.759 14.078 74.867 10.735C75.786 10.424 76.75 10.265 77.72 10.265C80.465 10.265 81.347 11.549 81.347 15.098C81.347 15.098 81.347 17.324 81.347 18.627C81.347 21.843 81.24 27.608 81.102 29.471H88.945C88.847 27.608 88.691 22.245 88.71 18.627V18.637ZM36.24 19.667C35.396 19.667 33.965 19.667 33.24 19.608V19.765C33.24 23.098 35.426 25.206 39.475 25.206C41.674 25.196 43.833 24.615 45.74 23.52L46.024 28.725C43.552 29.631 40.93 30.061 38.298 29.99C30.073 29.99 26.122 27.176 25.436 19.549C24.455 19.549 23.083 19.451 21.151 19.441C21.102 20.784 21.053 21.971 21.053 22.961C21.005 25.136 21.12 27.312 21.396 29.471C16.887 29.471 13.396 29.971 9.847 29.971C3.132 29.971 0.769 27.186 0.769 22.441C0.769 17.696 4.563 15.353 12.759 15.353H13.887V14.863C13.887 11.608 12.906 10.245 9.592 10.245C7.342 10.312 5.137 10.899 3.151 11.961L2.877 6.765C5.6 5.844 8.464 5.412 11.338 5.49C18.524 5.49 21.23 7.853 21.23 14.373C21.23 14.735 21.23 15.088 21.23 15.431C22.985 15.431 24.269 15.431 25.445 15.539C26.171 9.108 29.367 5.51 37.436 5.51C44.083 5.51 47.141 8.304 47.141 12.51C47.181 17.402 43.465 19.667 36.24 19.667ZM13.818 25.176C13.7 23.598 13.749 21.314 13.769 19.363C13.494 19.363 13.112 19.363 12.789 19.363C9.377 19.363 8.014 20.51 8.014 22.529C8.014 24.549 9.083 25.471 11.583 25.471C12.337 25.463 13.087 25.364 13.818 25.176ZM35.387 15.706C38.543 15.706 40.053 14.647 40.053 12.373C40.053 10.755 38.955 9.873 37.259 9.873C34.269 9.873 33.23 12.265 33.23 15.529V15.647C33.798 15.696 34.602 15.706 35.357 15.706H35.387ZM112.377 29.431C107.867 29.431 104.377 29.931 100.828 29.931C94.112 29.931 91.749 27.147 91.749 22.402C91.749 17.657 95.534 15.314 103.74 15.314H104.867V14.824C104.867 11.569 103.887 10.206 100.573 10.206C98.322 10.273 96.118 10.86 94.132 11.922L93.857 6.725C96.594 5.792 99.476 5.353 102.367 5.431C109.563 5.431 112.259 7.794 112.259 14.314C112.259 17.804 112.034 20.794 112.034 22.902C111.963 25.096 112.058 27.291 112.318 29.471L112.377 29.431ZM104.808 25.137C104.691 23.559 104.74 21.275 104.759 19.324C104.485 19.324 104.102 19.324 103.779 19.324C100.367 19.324 99.004 20.471 99.004 22.49C99.004 24.51 100.073 25.431 102.573 25.431C103.316 25.434 104.056 25.349 104.779 25.176L104.808 25.137Z" fill="#828282"/>
<path d="M114.857 10.539C114.593 10.234 114.39 9.882 114.259 9.5C114.12 9.096 114.05 8.672 114.053 8.245C114.051 7.817 114.124 7.393 114.269 6.99C114.408 6.628 114.614 6.295 114.877 6.01C115.152 5.713 115.486 5.476 115.857 5.314C116.682 4.969 117.611 4.969 118.436 5.314C118.808 5.474 119.142 5.711 119.416 6.01C119.678 6.296 119.884 6.628 120.024 6.99C120.169 7.392 120.242 7.817 120.24 8.245C120.241 8.673 120.168 9.097 120.024 9.5C119.89 9.883 119.684 10.235 119.416 10.539C119.141 10.836 118.807 11.073 118.436 11.235C117.611 11.58 116.682 11.58 115.857 11.235C115.478 11.078 115.137 10.84 114.857 10.539ZM116.053 10.755C116.388 10.908 116.753 10.985 117.122 10.98C117.491 10.988 117.856 10.911 118.191 10.755C118.491 10.613 118.758 10.409 118.975 10.157C119.193 9.9 119.359 9.604 119.465 9.284C119.576 8.952 119.632 8.605 119.632 8.255C119.628 7.921 119.571 7.591 119.465 7.275C119.358 6.958 119.192 6.665 118.975 6.412C118.759 6.159 118.492 5.955 118.191 5.814C117.512 5.519 116.741 5.519 116.063 5.814C115.762 5.955 115.495 6.159 115.279 6.412C115.062 6.665 114.895 6.958 114.789 7.275C114.682 7.591 114.626 7.921 114.622 8.255C114.613 8.775 114.738 9.288 114.985 9.745C115.229 10.183 115.602 10.536 116.053 10.755ZM115.985 6.284H117.034C117.449 6.245 117.864 6.36 118.2 6.608C118.432 6.818 118.561 7.119 118.553 7.431C118.556 7.581 118.533 7.731 118.485 7.873C118.44 7.997 118.373 8.114 118.289 8.216C118.209 8.313 118.112 8.396 118.004 8.461C117.902 8.525 117.789 8.572 117.671 8.598L118.651 10.176C118.6 10.208 118.543 10.231 118.485 10.245H118.328C118.236 10.245 118.146 10.225 118.063 10.186C117.971 10.138 117.896 10.062 117.847 9.971L117.063 8.667H116.583V10.196H116.004L115.985 6.284ZM117.151 8.078C117.681 8.078 117.945 7.853 117.945 7.392C117.957 7.214 117.88 7.041 117.74 6.931C117.536 6.81 117.299 6.755 117.063 6.775H116.553V8.049L117.151 8.078Z" fill="#828282"/>
</svg>
