<svg width="452" height="310" viewBox="0 0 452 310" fill="none" xmlns="http://www.w3.org/2000/svg">
<g clip-path="url(#clip0_8727_2176)">
<rect width="452" height="310" rx="6" fill="#181818"/>
<path fill-rule="evenodd" clip-rule="evenodd" d="M81.0332 109.792L38.7432 203.395H89.3703L95.6466 188.471H109.993L116.269 203.395H171.995V192.005L176.961 203.395H205.787L210.752 191.764V203.395H326.648L340.74 188.858L353.936 203.395L413.462 203.516L371.038 156.855L413.462 109.792H354.859L341.141 124.06L328.361 109.792H202.282L191.455 133.951L180.375 109.792H129.854V120.795L124.233 109.792H81.0332ZM254.099 123.083H320.652L341.007 145.075L362.019 123.083H382.374L351.446 156.842L382.374 190.211H361.096L340.74 167.964L319.622 190.211H254.099V123.083ZM270.534 149.251V136.99V136.978H312.061L330.181 156.587L311.258 176.304H270.534V162.918H306.842V149.251H270.534ZM90.8293 123.083H115.507L143.558 186.557V123.083H170.592L192.258 168.593L212.226 123.083H239.125V190.25H222.758L222.624 137.619L198.762 190.25H184.121L160.125 137.619V190.25H126.454L120.071 175.192H85.5834L79.2132 190.237H61.1725L90.8293 123.083ZM91.4721 161.272L102.834 134.448L114.183 161.272H91.4721Z" fill="white"/>
</g>
<defs>
<clipPath id="clip0_8727_2176">
<path d="M0 16C0 7.16345 7.16344 0 16 0H436C444.837 0 452 7.16344 452 16V294C452 302.837 444.837 310 436 310H16C7.16345 310 0 302.837 0 294V16Z" fill="white"/>
</clipPath>
</defs>
</svg>
