<svg width="452" height="310" viewBox="0 0 452 310" fill="none" xmlns="http://www.w3.org/2000/svg">
<g clip-path="url(#clip0_8727_2175)">
<rect width="452" height="310" rx="6" fill="#181818"/>
<path fill-rule="evenodd" clip-rule="evenodd" d="M107.785 115.384C113.855 115.896 119.926 112.311 123.72 107.766C127.45 103.092 129.916 96.8184 129.284 90.4165C123.909 90.6726 117.27 94.0016 113.476 98.6749C109.998 102.708 107.026 109.238 107.785 115.384ZM179.996 197.84V98.0347H216.986C236.082 98.0347 249.424 111.351 249.424 130.812C249.424 150.274 235.829 163.718 216.481 163.718H195.298V197.84H179.996ZM129.22 116.6C123.872 116.289 118.993 118.228 115.051 119.795C112.515 120.804 110.367 121.658 108.733 121.658C106.899 121.658 104.663 120.758 102.152 119.748C98.8614 118.425 95.0996 116.912 91.1547 116.984C82.1126 117.112 73.7028 122.298 69.0869 130.556C59.6021 147.073 66.6208 171.528 75.7894 184.972C80.2789 191.63 85.6536 198.928 92.7355 198.672C95.8512 198.553 98.0924 197.59 100.412 196.594C103.082 195.447 105.856 194.255 110.187 194.255C114.369 194.255 117.021 195.416 119.568 196.53C121.989 197.589 124.314 198.607 127.766 198.544C135.101 198.416 139.717 191.886 144.206 185.228C149.051 178.083 151.18 171.109 151.503 170.05C151.522 169.99 151.534 169.949 151.541 169.928C151.533 169.92 151.473 169.892 151.368 169.843C149.748 169.093 137.369 163.355 137.251 147.969C137.131 135.055 147.069 128.512 148.634 127.482C148.729 127.42 148.793 127.377 148.822 127.355C142.499 117.881 132.635 116.856 129.22 116.6ZM277.373 198.608C286.985 198.608 295.9 193.679 299.947 185.869H300.263V197.84H314.427V148.162C314.427 133.757 303.045 124.475 285.53 124.475C269.28 124.475 257.266 133.885 256.823 146.817H270.608C271.746 140.671 277.373 136.638 285.088 136.638C294.446 136.638 299.694 141.055 299.694 149.186V154.691L280.598 155.844C262.83 156.932 253.219 164.294 253.219 177.098C253.219 190.03 263.146 198.608 277.373 198.608ZM281.482 186.765C273.326 186.765 268.141 182.796 268.141 176.714C268.141 170.44 273.136 166.791 282.684 166.215L299.693 165.127V170.76C299.693 180.107 291.852 186.765 281.482 186.765ZM361.408 201.745C355.274 219.222 348.255 224.984 333.333 224.984C332.195 224.984 328.401 224.856 327.515 224.6V212.629C328.464 212.757 330.804 212.885 332.005 212.885C338.771 212.885 342.565 210.004 344.904 202.514L346.295 198.096L320.37 125.435H336.368L354.389 184.396H354.705L372.726 125.435H388.281L361.408 201.745ZM195.297 111.095H212.938C226.217 111.095 233.805 118.265 233.805 130.876C233.805 143.488 226.217 150.722 212.875 150.722H195.297V111.095Z" fill="white"/>
</g>
<defs>
<clipPath id="clip0_8727_2175">
<path d="M0 16C0 7.16345 7.16344 0 16 0H436C444.837 0 452 7.16344 452 16V294C452 302.837 444.837 310 436 310H16C7.16345 310 0 302.837 0 294V16Z" fill="white"/>
</clipPath>
</defs>
</svg>
