<svg width="800" height="800" viewBox="0 0 800 800" fill="none" xmlns="http://www.w3.org/2000/svg">
<rect width="800" height="800" rx="80" fill="black"/>
<path d="M516.156 323C537.383 323 554.75 340.367 554.75 361.594V438.781C554.75 460.49 537.383 477.375 516.156 477.375H284.594C262.885 477.375 246 460.49 246 438.781V361.594C246 340.367 262.885 323 284.594 323H516.156ZM462.125 454.219H516.156C524.357 454.219 531.594 447.465 531.594 438.781V361.594C531.594 353.393 524.357 346.156 516.156 346.156H462.125V454.219ZM338.625 346.156H284.594C275.91 346.156 269.156 353.393 269.156 361.594V438.781C269.156 447.465 275.91 454.219 284.594 454.219H338.625V346.156Z" fill="#0065FF"/>
<path d="M388.156 376.578C388.156 383.332 382.85 388.156 376.578 388.156C369.824 388.156 365 383.332 365 376.578C365 370.307 369.824 365 376.578 365C382.85 365 388.156 370.307 388.156 376.578Z" fill="black"/>
<path d="M411.312 376.578C411.312 370.307 416.137 365 422.891 365C429.162 365 434.469 370.307 434.469 376.578C434.469 383.332 429.162 388.156 422.891 388.156C416.137 388.156 411.312 383.332 411.312 376.578Z" fill="black"/>
<path d="M388.156 422.891C388.156 429.645 382.85 434.469 376.578 434.469C369.824 434.469 365 429.645 365 422.891C365 416.619 369.824 411.312 376.578 411.312C382.85 411.312 388.156 416.619 388.156 422.891Z" fill="black"/>
<path d="M411.312 422.891C411.312 416.619 416.137 411.312 422.891 411.312C429.162 411.312 434.469 416.619 434.469 422.891C434.469 429.645 429.162 434.469 422.891 434.469C416.137 434.469 411.312 429.645 411.312 422.891Z" fill="black"/>
</svg>
