<svg width="216" height="42" viewBox="0 0 216 42" fill="none" xmlns="http://www.w3.org/2000/svg">
<path d="M20.3 32.6C26.8722 32.6 32.2 27.2722 32.2 20.7C32.2 14.1278 26.8722 8.80002 20.3 8.80002C13.7278 8.80002 8.4 14.1278 8.4 20.7C8.4 27.2722 13.7278 32.6 20.3 32.6Z" fill="#828282"/>
<path d="M63.1 5.50002C58 5.50002 50.2 3.10002 50.2 3.10002C50.2 3.10002 48.5 7.50002 48.5 13.5C48.5 19.5 53.5 35.3 63.6 39.3C63.6 39.3 78 30.2 78 14.3C78 4.80002 76.6 3.10002 76.6 3.10002C76.6 3.10002 68.2 5.50002 63.1 5.50002Z" fill="#828282"/>
<path d="M206.5 16.6H206.2V16.1H206.6C206.8 16.1 207 16.1 207 16.3C207 16.6 206.7 16.6 206.5 16.6ZM207.2 16.3C207.2 16 207.1 15.9 206.7 15.9H206V17.4H206.2V16.7H206.5L207 17.4H207.2L206.8 16.7C207 16.7 207.2 16.6 207.2 16.3ZM214.2 41.1C213.6 41.1 213.1 40.6 213.1 40C213.1 39.4 213.6 38.9 214.2 38.9C214.8 38.9 215.3 39.4 215.3 40C215.3 40.6 214.8 41.1 214.2 41.1ZM214.2 38.6C213.5 38.6 212.9 39.2 212.9 39.9C212.9 40.6 213.5 41.2 214.2 41.2C214.9 41.2 215.5 40.6 215.5 39.9C215.5 39.2 214.9 38.6 214.2 38.6Z" fill="#828282"/>
<path d="M214.1 39.9H213.8V39.4H214.2C214.4 39.4 214.6 39.4 214.6 39.6C214.6 39.9 214.4 39.9 214.1 39.9ZM214.9 39.6C214.9 39.3 214.8 39.2 214.4 39.2H213.7V40.7H213.9V40H214.2L214.6 40.7H214.8L214.4 40C214.7 40 214.9 39.9 214.9 39.6Z" fill="#828282"/>
<path d="M38.4 36.8C37.1 36.8 36.1 37.8 36.1 39.1C36.1 40.4 37.1 41.4 38.4 41.4C39.6 41.4 40.7 40.4 40.7 39.1C40.7 37.8 39.7 36.8 38.4 36.8ZM38.4 41C37.3 41 36.5 40.2 36.5 39.1C36.5 38 37.3 37.2 38.4 37.2C39.5 37.2 40.3 38 40.3 39.1C40.3 40.2 39.6 41 38.4 41Z" fill="#333333"/>
<path d="M39.6 38.5C39.6 38 39.4 37.8 38.7 37.8H37.6V40.4H37.9V39.3H38.5L39.2 40.4H39.6L38.8 39.3C39.3 39.2 39.6 39 39.6 38.5ZM38.4 38.9H37.9V38.1H38.6C38.9 38.1 39.2 38.1 39.2 38.5C39.3 39 38.7 38.9 38.4 38.9ZM20.4 23.8C20.3 23.8 20.3 23.8 20.2 23.9L16.4 29.7C17.6 30.2 18.9 30.5 20.3 30.5C21.7 30.5 23 30.2 24.2 29.7L20.4 23.9C20.5 23.8 20.4 23.8 20.4 23.8ZM16.7 19L11 18.5C10.8 19.2 10.7 20 10.7 20.8C10.7 23.2 11.6 25.4 13 27.1L17 19.5C17.2 19.3 17.1 19.1 16.7 19Z" fill="#333333"/>
<path d="M29.4 11.7V0.4H11.3V11.7H0V29.8H11.3V41.1H29.4V29.8H40.7V11.7H29.4ZM20.4 9.6C24.9 9.6 28.8 12.2 30.5 16.1H22.5C21.4 16.1 20.9 15.4 20.8 14.9C20.8 14.3 20.9 14.1 21.4 13.4C22 12.6 21.6 11.2 20.3 11.1C19 11.1 18.6 12.6 19.2 13.4C19.7 14.1 19.8 14.3 19.8 14.9C19.8 15.4 19.3 16.1 18.1 16.1H10.1C12 12.3 15.9 9.6 20.4 9.6ZM9.2 20.8C9.2 19.4 9.5 18.1 9.9 16.9L17.4 17.6C18.8 17.8 19 19.2 18.6 20L13.5 29.7C10.9 27.6 9.2 24.4 9.2 20.8ZM26.5 30.2C24.7 31.4 22.6 32 20.3 32C18 32 15.9 31.3 14.1 30.2L19.6 22.1C20 21.5 20.6 21.6 21 22.1L26.5 30.2ZM27.3 29.6L22.2 20C21.8 19.2 22 17.8 23.4 17.6L30.9 16.9C31.4 18.1 31.6 19.5 31.6 20.8C31.6 24.4 29.9 27.6 27.3 29.6Z" fill="#333333"/>
<path d="M27.7 14.5C26.5 13.1 24.9 12 23.1 11.5C23.7 12.4 23.2 13.7 22.7 14.3C22.6 14.4 22.7 14.5 22.7 14.5H27.7ZM24.1 19C23.7 19 23.7 19.2 23.8 19.4L27.8 27C29.2 25.3 30.1 23.1 30.1 20.7C30.1 19.9 30 19.1 29.8 18.4L24.1 19ZM17.7 11.6C15.9 12.1 14.3 13.2 13.1 14.6H18.1C18.2 14.6 18.2 14.5 18.1 14.4C17.6 13.7 17.1 12.5 17.7 11.6Z" fill="#333333"/>
<path d="M77.1 0.4C72.7 2.6 68.3 3.8 63.2 3.8C58.1 3.8 53.7 2.6 49.3 0.4C46.4 6.1 46 15.3 48.5 23C50.9 30.4 55.6 37.2 63.2 41.4C70.9 37.2 75.5 30.4 77.9 23C80.5 15.3 80 6.1 77.1 0.4ZM75.1 22.1C72.9 28.4 69.6 34 63.3 37.9C57 34 53.6 28.4 51.5 22.1C49.6 16.5 49.1 9.9 51.2 4.8C54.4 5.9 56.2 6.2 57.9 6.5C59.5 6.8 60.9 6.9 63.3 6.9C65.6 6.9 67.1 6.7 68.7 6.5C70.4 6.2 72.3 5.9 75.4 4.8C77.4 9.9 77 16.5 75.1 22.1Z" fill="#333333"/>
<path d="M68.7 7.9C66.9 8.1 65 8.3 63.2 8.3C61.4 8.3 59.6 8.1 57.7 7.9C55.9 7.6 54.1 7.2 52.2 6.7C50.9 10.5 51.1 15.3 52.2 19.5C54.1 27.5 59 33.6 63.2 36.3C67.5 33.6 72.3 27.5 74.2 19.5C75.2 15.2 75.5 10.5 74.2 6.7C72.3 7.2 70.6 7.7 68.7 7.9ZM62.2 32.6C62.1 33 62.3 33.2 62.3 33.4C62.2 33.7 62 33.6 61.9 33.4C61.7 33.1 61.6 32.9 61.6 32.4C61.5 31.6 61.9 31.3 62.1 31.1C62.3 30.9 62.5 30.8 62.5 30.8L62.6 32.1C62.4 32.1 62.2 32.2 62.2 32.6ZM63.9 33.9C63.9 34.1 63.8 34.3 63.4 34.3C63.1 34.3 62.9 34.2 62.9 33.8C62.8 32.2 62.8 29.3 62.8 29.3C62.8 29.3 63.2 29.4 63.5 29.6C63.6 29.6 63.8 29.8 64 30C64 30.1 64.1 30.1 64.1 30.2C64 31.3 63.9 33.4 63.9 33.9ZM65.2 30.9C64.8 31.2 64.4 31.3 64.4 31.3V30.1C64.4 30.1 64.5 30 64.5 29.8C64.4 29.6 63.6 29 63.2 28.8C62.7 28.6 62.1 28.4 61.7 28.3C60.7 27.9 60.3 27 60.7 26C60.8 25.6 61.3 25.4 61.5 25.3C61.7 25.2 62.1 25.1 62.1 25.1L62.2 26.5C62.2 26.5 62.1 26.5 62 26.7C61.9 26.9 62.1 27.1 62.2 27.1C62.9 27.4 63.8 27.8 64.5 28.2C65.4 28.7 65.7 29.1 65.7 29.8C65.8 30.3 65.5 30.7 65.2 30.9ZM62.7 24.4C63.4 24.5 63.6 24.5 64.2 24.6L64.1 27.4L62.9 26.8L62.7 24.4ZM66.7 25C66.6 25.5 66.3 25.9 65.8 26.2C65.3 26.5 64.7 26.5 64.7 26.5V24.8C64.7 24.8 64.8 24.8 64.9 24.7C65 24.6 65 24.5 65 24.4C65 24.3 64.9 24.2 64.8 24.1C64.6 24 64.4 24 64.3 24L61.9 23.7C60.5 23.5 59.4 22.6 59.5 21.2C59.6 20.3 60.5 20 61.2 19.7L61.7 20.7C61.8 21.1 61.9 21.3 61.9 21.3C61.9 21.3 61.6 21.4 61.6 21.6C61.6 21.8 61.9 21.9 62 21.9C63 22 64.4 22.2 65.1 22.5C65.6 22.7 66 22.9 66.3 23.3C66.7 24 66.8 24.5 66.7 25ZM62.1 18.5C62.1 18.5 62.4 18.5 63.3 18.6C63.9 18.6 64.4 18.8 64.4 18.8L64.3 21.8C63.6 21.7 63.2 21.6 62.6 21.5C62.4 20.4 62.1 20 61.7 19.2C61.6 19 61.7 18.9 61.7 18.9C61.8 18.8 62.2 18.7 62.2 18.7L62.1 18.5ZM64.8 21.5C64.8 21.5 64.9 20.1 64.9 19.4C65.3 19.3 65.4 18.9 65.2 18.6C65.1 18.4 64.8 18.3 64.7 18.3C63.9 18.1 63.2 18.1 62.4 18C61.7 17.9 61.1 17.8 60.5 17.7C59.2 17.4 58 16.7 57.4 15.5C56.7 14 57.3 12.1 58.8 11.4C59.9 10.8 61.1 10.9 62.2 11.4C62.6 11.5 62.8 11.9 63 12.2C63.1 12.3 63.3 12.4 63.4 12.6C63.5 12.7 63.3 12.7 63.3 12.7C63.1 12.8 62.2 12.8 62 12.7H60.8C61.1 12.9 61.5 13.1 61.9 13.3C62.1 13.4 62.3 13.4 62.5 13.5C62.6 13.5 62.8 13.6 62.8 13.7C62.8 13.8 62.6 13.8 62.4 13.9C62.1 14 61.7 14 61.3 13.9C60.7 13.8 60.4 13.4 60 13.6C59.7 13.8 59.7 14.1 59.8 14.5C59.9 15.1 60.5 15.3 61 15.5C62.7 16.1 64.6 15.7 66.2 16.6C66.8 16.9 67.6 17.6 67.7 18.3C68.2 21.1 64.8 21.5 64.8 21.5ZM67.8 12.2C67.7 12.5 67.6 12.5 67.4 12.7C67 13.1 66.4 13.5 65.8 14C65.4 14.3 65.1 14.5 64.8 15C64.7 15.1 64.6 15.3 64.6 15.3C63.6 15.1 62.7 15.1 61.9 14.9V14.1C61.9 14.1 62.8 14.1 62.9 13.5C62.9 13.5 62.9 13.3 62.8 13.2C62.7 13.1 62.4 13 62.3 13C63 13.1 63.7 13.4 64.4 13.7C64.4 13.6 64.3 13.3 64.3 13.3C64.2 13.2 64.1 13.1 63.8 13C63.4 12.9 62.3 12.8 62.3 12.8H63.2C63.4 12.8 63.7 12.7 63.7 12.6C63.8 12.5 63.7 12.3 63.5 12.1L63.2 11.8C63.1 11.6 62.9 11.4 62.8 11.2C62.6 10.9 61.8 10.6 61.8 10.6C61.8 10.6 61.7 10.1 61.9 9.9C62 9.7 62.4 9.7 62.5 9.8C63 10.1 63.7 10.4 64.4 10.6C64.6 10.7 64.6 10.7 64.6 11C64.7 11.5 64.5 12.2 64.6 12.5C64.6 12.6 64.8 12.6 64.8 12.6C65.5 12.2 65.9 11.6 66.6 11.3C67.1 11.1 68 11.5 67.8 12.2ZM77.3 36.9C76.1 36.9 75.1 37.9 75.1 39.1C75.1 40.3 76.1 41.3 77.3 41.3C78.5 41.3 79.5 40.3 79.5 39.1C79.5 37.9 78.5 36.9 77.3 36.9ZM77.3 41C76.2 41 75.4 40.2 75.4 39.1C75.4 38 76.2 37.2 77.3 37.2C78.4 37.2 79.2 38 79.2 39.1C79.2 40.2 78.4 41 77.3 41Z" fill="#333333"/>
<path d="M78.5 38.5C78.5 38 78.3 37.8 77.6 37.8H76.5V40.4H76.8V39.3H77.3L78 40.4H78.4L77.6 39.3C78.1 39.2 78.5 39 78.5 38.5ZM77.3 39H76.8V38.2H77.5C77.8 38.2 78.1 38.2 78.1 38.6C78.1 39 77.6 39 77.3 39ZM61.1 11.5C61.3 11.7 61.3 11.9 61.6 11.9C61.8 11.9 61.9 11.8 62 11.7H62.2C61.9 11.4 61.2 11.4 60.7 11.3C60.9 11.5 61 11.4 61.1 11.5Z" fill="#333333"/>
<path d="M92.8008 0.6H99.3008C102.401 0.4 105.501 1.7 105.501 5.1C105.501 7 104.201 8.3 102.501 8.9C104.701 9.4 106.301 10.9 106.301 13.4C106.301 16.8 102.001 18.1 99.4008 17.9H92.8008V0.6ZM99.4008 7.5C101.001 7.5 101.801 6.9 101.801 5.5C101.801 4.1 100.901 3.5 99.4008 3.5H96.5008V7.6H99.4008V7.5ZM99.4008 14.9C101.101 14.9 102.301 14.6 102.301 12.6C102.301 10.6 101.101 10.3 99.4008 10.3H96.5008V14.9H99.4008ZM112.201 0.6V17.8H108.601V0.6H112.201ZM123.101 16.3C122.301 17.4 121.201 18.1 119.401 18.1C118.201 18.1 115.901 17.2 115.501 15.5C115.301 14.8 115.301 14 115.301 13.6V5.8H118.901V13C118.901 14.3 119.301 15.8 121.001 15.8C122.101 15.8 123.101 14.8 123.101 13V5.8H126.701V15.6C126.701 16.3 126.801 17 126.801 17.7H123.201L123.101 16.3ZM133.001 12.8C133.001 14.4 133.201 15.8 135.101 15.8C136.301 15.8 137.001 15.3 137.301 14.2H140.501C140.201 17.2 137.901 18.1 135.101 18.1C131.001 18.1 129.301 15.8 129.301 11.8C129.301 8.2 131.401 5.4 135.101 5.4C137.301 5.4 139.201 6.2 140.201 8.3C140.501 9 140.701 9.7 140.801 10.4C140.901 11.1 140.901 11.9 140.901 12.7H133.001V12.8ZM137.201 10.4C137.201 9.1 136.801 7.9 135.101 7.9C133.501 7.9 133.101 9.1 133.001 10.4H137.201ZM153.001 6.1C153.001 4.3 151.901 2.8 149.701 2.8C147.101 2.8 146.401 6.7 146.401 9.1C146.401 11.5 147.101 15.4 149.701 15.4C151.901 15.4 153.001 13.9 153.001 12.1H156.901C156.701 16.4 153.601 18 149.701 18C144.701 18 142.501 14.1 142.501 9C142.501 4 144.701 0 149.701 0C153.701 0 156.801 1.6 156.901 5.9H153.001V6.1ZM162.101 5.8L162.201 8C163.001 6.1 164.501 5.6 166.301 5.7V8.9H164.701C164.101 8.9 163.301 9.3 163.001 9.8C162.601 10.5 162.501 11.1 162.501 11.9V17.8H158.901V8.2C158.901 7.7 158.801 6.7 158.801 5.8H162.101ZM174.101 18.2C170.201 18.2 167.801 15.6 167.801 11.8C167.801 8 170.101 5.4 174.101 5.4C178.001 5.4 180.401 8 180.401 11.8C180.401 15.6 178.001 18.2 174.101 18.2ZM174.101 15.8C176.301 15.8 176.701 13.7 176.701 11.8C176.701 9.9 176.301 7.8 174.101 7.8C171.901 7.8 171.501 9.9 171.501 11.8C171.601 13.7 171.901 15.8 174.101 15.8ZM189.001 9C189.001 8.2 188.201 7.8 187.401 7.8C186.401 7.8 186.001 8.1 186.001 8.9C186.001 10.8 192.901 9.7 192.901 14.2C192.901 16.8 189.701 18.1 187.501 18.1C184.701 18.1 182.301 17 182.201 14.3H185.501C185.601 15.2 186.401 15.8 187.501 15.8C188.501 15.8 189.201 15.4 189.201 14.5C189.201 13.5 187.501 13.1 186.801 13C184.501 12.5 182.401 11.9 182.401 9.2C182.401 6.7 185.401 5.6 187.501 5.6C190.001 5.6 192.201 6.5 192.301 9.2H189.001V9ZM200.901 9C200.901 8.2 200.101 7.8 199.301 7.8C198.301 7.8 197.901 8.1 197.901 8.9C197.901 10.8 204.801 9.7 204.801 14.2C204.801 16.8 201.601 18.1 199.401 18.1C196.601 18.1 194.201 17 194.101 14.3H197.401C197.501 15.2 198.301 15.8 199.401 15.8C200.401 15.8 201.101 15.4 201.101 14.5C201.101 13.5 199.401 13.1 198.701 13C196.401 12.5 194.301 11.9 194.301 9.2C194.301 6.7 197.301 5.6 199.401 5.6C201.901 5.6 204.101 6.5 204.201 9.2H200.901V9ZM92.8008 24H99.3008C102.401 23.8 105.501 25.1 105.501 28.5C105.501 30.4 104.201 31.7 102.501 32.3C104.701 32.8 106.301 34.3 106.301 36.8C106.301 40.2 102.001 41.5 99.4008 41.3H92.8008V24ZM99.4008 30.9C101.001 30.9 101.801 30.3 101.801 28.9C101.801 27.5 100.901 26.9 99.4008 26.9H96.5008V31L99.4008 30.9ZM99.4008 38.3C101.101 38.3 102.301 38 102.301 36C102.301 34 101.101 33.7 99.4008 33.7H96.5008V38.3H99.4008ZM112.201 24V41.2H108.601V24H112.201ZM123.101 39.7C122.301 40.8 121.201 41.5 119.401 41.5C118.201 41.5 115.901 40.6 115.501 38.8C115.301 38.1 115.301 37.3 115.301 36.9V29.1H118.901V36.4C118.901 37.7 119.301 39.2 121.001 39.2C122.101 39.2 123.101 38.2 123.101 36.4V29.2H126.701V39C126.701 39.7 126.801 40.4 126.801 41.1H123.201L123.101 39.7ZM133.001 36.2C133.001 37.8 133.201 39.2 135.101 39.2C136.301 39.2 137.001 38.7 137.301 37.6H140.501C140.201 40.6 137.901 41.5 135.101 41.5C131.001 41.5 129.301 39.2 129.301 35.2C129.301 31.6 131.401 28.8 135.101 28.8C137.301 28.8 139.201 29.6 140.201 31.7C140.501 32.4 140.701 33.1 140.801 33.8C140.901 34.5 140.901 35.3 140.901 36.1L133.001 36.2ZM137.201 33.8C137.201 32.5 136.801 31.3 135.101 31.3C133.501 31.3 133.101 32.5 133.001 33.8H137.201ZM152.501 28.9C152.401 27.2 151.401 26.3 149.601 26.3C148.201 26.3 146.901 27 146.901 28.5C146.901 30.4 148.601 30.6 150.101 30.9C152.701 31.6 156.601 32.3 156.601 35.8C156.601 40.1 152.901 41.6 149.201 41.6C145.301 41.6 142.501 40.1 142.601 35.7H146.401C146.301 37.6 147.401 38.9 149.301 38.9C150.801 38.9 152.701 38.4 152.701 36.6C152.701 34.6 150.201 34.4 148.801 34C146.401 33.4 143.101 32.3 143.101 29.2C143.101 25.3 146.701 23.5 150.301 23.5C153.601 23.5 156.201 25.3 156.201 28.8L152.501 28.9ZM159.101 41.2V24H162.701V30.7C163.401 29.6 164.601 28.9 166.401 28.9C167.601 28.9 169.901 29.8 170.301 31.5C170.501 32.2 170.501 33 170.501 33.4V41.2H167.001V34C167.001 32.7 166.601 31.3 164.901 31.3C163.801 31.3 162.801 32.3 162.801 34V41.2H159.101ZM177.401 24V27.1H173.601V24H177.401ZM177.201 29.2V41.2H173.601V29.2H177.201ZM183.501 36.2C183.501 37.8 183.701 39.2 185.601 39.2C186.801 39.2 187.501 38.7 187.801 37.6H191.001C190.701 40.6 188.401 41.5 185.601 41.5C181.501 41.5 179.801 39.2 179.801 35.2C179.801 31.6 181.901 28.8 185.601 28.8C187.801 28.8 189.701 29.6 190.701 31.7C191.001 32.4 191.201 33.1 191.301 33.8C191.401 34.5 191.401 35.3 191.401 36.1L183.501 36.2ZM187.601 33.8C187.601 32.5 187.201 31.3 185.501 31.3C183.901 31.3 183.501 32.5 183.401 33.8H187.601ZM197.101 24V41.2H193.501V24H197.101ZM208.501 24H212.101V38.9C212.101 39.7 212.201 40.5 212.201 41.3H208.601C208.601 40.7 208.501 40.2 208.501 39.6C207.701 41 206.401 41.7 204.801 41.7C201.301 41.7 199.601 38.4 199.601 35.3C199.601 32.1 201.501 28.9 205.201 28.9C206.401 28.9 207.701 29.6 208.401 30.6L208.501 24ZM205.901 39.2C207.801 39.2 208.501 36.9 208.501 35.2C208.501 33.6 207.901 31.2 205.901 31.2C203.601 31.2 203.301 33.3 203.301 35.2C203.301 37 203.601 39.2 205.901 39.2ZM206.501 17.8C205.901 17.8 205.401 17.3 205.401 16.7C205.401 16.1 205.901 15.6 206.501 15.6C207.101 15.6 207.601 16.1 207.601 16.7C207.601 17.3 207.201 17.8 206.501 17.8ZM206.501 15.3C205.801 15.3 205.201 15.9 205.201 16.6C205.201 17.3 205.801 17.9 206.501 17.9C207.201 17.9 207.801 17.3 207.801 16.6C207.801 15.9 207.201 15.3 206.501 15.3Z" fill="#828282"/>
</svg>
