<svg width="800" height="800" viewBox="0 0 800 800" fill="none" xmlns="http://www.w3.org/2000/svg">
<rect width="800" height="800" rx="80" fill="black"/>
<path d="M353 276C359.297 276 364.625 281.328 364.625 287.625V307H434.375V287.625C434.375 281.328 439.219 276 446 276C452.297 276 457.625 281.328 457.625 287.625V307H477C493.953 307 508 321.047 508 338V493C508 510.437 493.953 524 477 524H322C304.562 524 291 510.437 291 493V338C291 321.047 304.562 307 322 307H341.375V287.625C341.375 281.328 346.219 276 353 276ZM484.75 369H314.25V493C314.25 497.359 317.641 500.75 322 500.75H477C480.875 500.75 484.75 497.359 484.75 493V369Z" fill="white"/>
<path d="M399.5 407.75C399.5 403.875 395.625 400 391.75 400H345.25C340.891 400 337.5 403.875 337.5 407.75V454.25C337.5 458.609 340.891 462 345.25 462H391.75C395.625 462 399.5 458.609 399.5 454.25V407.75Z" fill="#0065FF"/>
</svg>
