<svg width="972" height="359" viewBox="0 0 972 359" fill="none" xmlns="http://www.w3.org/2000/svg">
<mask id="mask0_8845_195" style="mask-type:luminance" maskUnits="userSpaceOnUse" x="99" y="155" width="100" height="54">
<path d="M198.825 155.587H99.5273V208.934H198.825V155.587Z" fill="white"/>
</mask>
<g mask="url(#mask0_8845_195)">
<path d="M191.933 186.472C201.633 178.049 200.867 149.461 190.146 157.119C175.086 167.839 159.77 179.07 149.815 185.196C134.499 194.385 116.885 202.042 103.867 206.636C100.293 207.913 99.5273 207.913 99.5273 208.678C99.5273 209.444 100.804 209.444 103.867 209.189C125.564 207.913 151.346 204.084 173.554 196.427C183.509 192.598 186.828 190.811 191.933 186.472Z" fill="white"/>
</g>
<mask id="mask1_8845_195" style="mask-type:luminance" maskUnits="userSpaceOnUse" x="86" y="192" width="129" height="37">
<path d="M214.143 192.854H86V228.333H214.143V192.854Z" fill="white"/>
</mask>
<g mask="url(#mask1_8845_195)">
<path d="M197.041 222.972C213.633 215.825 220.78 188.259 206.741 193.364C187.085 200.766 160.793 207.147 148.285 209.444C127.353 213.273 104.89 213.783 90.0846 213.273C88.0425 213.273 86.2557 212.762 86.0004 213.528C85.7451 214.294 87.2767 214.804 89.5741 216.08C107.443 224.504 137.564 229.864 169.727 228.077C184.533 227.311 191.425 225.269 197.041 222.972Z" fill="white"/>
</g>
<mask id="mask2_8845_195" style="mask-type:luminance" maskUnits="userSpaceOnUse" x="111" y="127" width="64" height="71">
<path d="M174.577 127H111.016V197.703H174.577V127Z" fill="white"/>
</mask>
<g mask="url(#mask2_8845_195)">
<path d="M172.536 155.587C179.428 141.804 166.92 120.619 162.581 128.787C155.689 141.549 142.926 158.906 138.076 165.542C130.418 176.007 121.483 186.472 114.081 193.874C112.039 195.916 110.762 196.937 111.273 197.192C111.528 197.703 112.549 197.192 114.591 196.427C130.418 189.28 147.52 179.58 160.794 168.86C168.452 162.99 170.239 160.437 172.536 155.587Z" fill="white"/>
</g>
<path d="M600.104 208.168C595.764 212.507 591.425 215.825 587.085 217.867C582.746 220.164 577.385 221.185 571.514 221.185C566.664 221.185 561.814 220.164 557.73 218.378C553.39 216.336 549.816 213.783 546.498 210.465C544.201 208.168 542.414 205.36 540.882 202.552C540.372 201.531 539.861 200.51 539.351 199.234C537.308 194.385 536.543 189.28 536.543 183.919V183.664C536.543 178.304 537.564 172.944 539.351 168.349C539.861 167.329 540.372 166.052 540.882 165.031C542.414 162.224 544.201 159.416 546.498 157.119C549.561 153.801 553.39 151.248 557.474 149.206C561.814 147.419 566.409 146.398 571.259 146.398C574.322 146.398 577.13 146.654 579.938 147.419C582.49 148.185 585.043 148.951 587.34 149.972C589.638 150.993 591.68 152.269 593.722 153.8C595.764 155.332 597.806 157.119 599.593 158.905L600.869 160.182L608.017 153.035L606.74 151.759C604.443 149.717 602.146 147.675 599.593 145.888C597.04 144.101 594.488 142.57 591.68 141.293C588.872 140.017 585.809 138.996 582.49 138.231C579.172 137.465 575.598 137.21 571.514 137.21C564.877 137.21 558.751 138.486 553.39 141.038C547.774 143.591 543.18 146.909 539.095 151.248C535.011 155.587 531.948 160.437 529.65 166.308C527.353 171.923 526.332 178.049 526.332 184.43V184.685C526.332 191.066 527.353 197.192 529.65 202.808C531.948 208.423 535.011 213.528 539.095 217.612C543.18 221.696 548.03 225.014 553.39 227.566C559.006 229.864 564.877 231.14 571.514 231.14C575.343 231.14 579.172 230.629 582.49 229.864C585.809 229.098 589.127 228.077 591.935 226.545C594.743 225.269 597.551 223.482 600.104 221.696C602.656 219.654 604.954 217.612 607.506 215.315L608.783 214.038L601.89 207.402L600.104 208.168ZM654.22 160.947H652.433C649.114 160.947 645.796 161.203 642.733 162.224C639.67 163.245 636.862 164.521 634.309 166.308C631.756 168.094 629.459 170.391 627.417 172.944C626.906 173.71 626.396 174.475 625.885 175.241V162.224H616.441V229.353H625.885V201.276C625.885 196.426 626.651 192.087 627.927 188.259C629.459 184.43 631.246 181.367 633.543 178.815C635.841 176.262 638.649 174.475 641.712 173.199C644.775 171.923 648.093 171.157 651.412 171.157H653.709V160.947H654.22ZM708.591 170.647C705.783 167.584 702.72 165.031 698.891 163.245C695.062 161.458 690.723 160.437 686.128 160.437C681.533 160.437 677.194 161.458 673.365 163.245C669.536 165.031 666.217 167.584 663.409 170.647C660.601 173.71 658.304 177.538 656.772 181.622C655.241 185.961 654.475 190.301 654.475 195.15V195.661C654.475 200.766 655.241 205.615 657.028 209.954C658.814 214.294 661.112 217.867 664.175 220.93C667.238 223.993 670.812 226.29 674.641 228.077C678.725 229.864 682.809 230.629 687.149 230.629C693.53 230.629 698.891 229.353 703.231 227.056C707.57 224.759 711.399 221.696 714.717 218.122L715.994 216.846L709.102 210.72L707.825 211.996C705.273 214.549 702.465 216.846 699.146 218.888C696.083 220.675 691.999 221.441 687.404 221.441C684.341 221.441 681.533 220.93 678.98 219.909C676.428 218.888 673.875 217.357 671.833 215.315C669.791 213.273 668.004 210.975 666.472 207.913C665.196 205.615 664.43 202.808 664.175 199.745H716.504L716.76 198.213C716.76 197.703 717.015 197.192 717.015 196.682V195.405C717.015 190.556 716.249 185.961 714.973 181.622C713.441 177.538 711.399 173.71 708.591 170.647ZM664.43 190.811C664.686 188.259 665.451 185.706 666.472 183.409C667.749 180.601 669.28 178.049 671.322 176.007C673.109 173.965 675.407 172.433 677.959 171.157C680.512 170.136 683.32 169.37 686.128 169.37C689.446 169.37 692.509 169.881 695.062 171.157C697.615 172.433 699.657 174.22 701.444 176.262C703.231 178.304 704.507 180.857 705.528 183.664C706.294 185.961 706.804 188.259 707.06 190.556H664.43V190.811ZM780.32 172.178C779.81 171.668 779.299 170.902 778.789 170.391C777.002 168.349 774.96 166.818 772.663 165.287C770.365 163.755 767.812 162.479 765.005 161.713C762.197 160.947 759.134 160.437 755.815 160.437C751.731 160.437 747.647 161.203 743.818 162.989C739.989 164.521 736.415 167.073 733.352 169.881C730.289 172.944 727.736 176.517 725.949 180.857C724.162 185.196 723.141 190.045 723.141 195.405V195.661C723.141 201.021 724.162 205.871 725.949 210.21C727.736 214.549 730.289 218.122 733.352 221.185C736.415 224.248 739.989 226.545 743.818 228.077C747.647 229.608 751.731 230.374 755.815 230.374C759.134 230.374 762.197 229.864 765.005 229.098C767.812 228.077 770.365 227.056 772.407 225.524C774.705 223.993 776.747 222.206 778.534 220.164C779.044 219.654 779.555 218.888 780.065 218.122V228.843H789.765V134.402H780.065V172.178H780.32ZM780.831 195.661C780.831 199.489 780.065 203.063 778.789 206.126C777.513 209.189 775.47 211.996 773.428 214.294C771.131 216.591 768.578 218.378 765.77 219.654C759.899 222.206 753.518 222.206 747.902 219.654C745.094 218.378 742.541 216.846 740.499 214.549C738.457 212.252 736.67 209.699 735.394 206.381C734.118 203.063 733.607 199.489 733.607 195.661V195.405C733.607 191.322 734.118 187.748 735.394 184.685C736.67 181.622 738.202 178.815 740.244 176.773C742.286 174.731 744.839 172.944 747.647 171.923C750.455 170.647 753.518 170.136 756.836 170.136C759.899 170.136 762.963 170.647 765.77 171.923C768.578 173.199 771.386 174.986 773.428 177.028C775.726 179.325 777.513 181.877 778.789 185.196C780.065 188.259 780.831 191.832 780.831 195.661ZM804.571 229.098H814.015V161.968H804.571V229.098ZM803.805 148.951H814.781V136.954H803.805V148.951ZM866.089 171.157V161.968H843.881V141.549H834.181V161.968H824.992V171.157H834.181V210.975C834.181 214.294 834.692 217.101 835.713 219.399C836.734 221.951 838.266 223.993 840.053 225.524C841.839 227.056 843.881 228.332 846.434 229.098C848.732 229.864 851.284 230.119 853.837 230.119C855.879 230.119 857.921 229.864 859.708 229.608C861.495 229.098 863.282 228.587 865.068 227.822L866.089 227.311V217.867L863.792 218.888C862.005 219.654 860.474 220.164 859.197 220.42C857.921 220.675 856.645 220.93 855.113 220.93C851.795 220.93 848.987 220.164 846.945 218.633C845.158 217.101 844.137 214.294 844.137 210.465V171.157H866.089Z" fill="white"/>
<path d="M283.319 231.14C255.495 231.14 235.074 209.699 235.074 182.643V182.388C235.074 155.587 255.24 133.636 284.085 133.636C301.954 133.636 312.419 139.507 321.098 148.185L307.825 163.5C300.677 156.864 293.275 152.78 283.83 152.78C268.003 152.78 256.516 166.052 256.516 182.133V182.388C256.516 198.469 267.748 211.997 283.83 211.997C294.551 211.997 301.188 207.657 308.59 201.021L321.864 214.294C312.164 224.759 301.443 231.14 283.319 231.14Z" fill="white"/>
<path d="M371.384 229.608V221.696C366.534 227.311 359.642 230.885 349.686 230.885C336.157 230.885 324.926 222.972 324.926 208.934V208.423C324.926 192.598 336.923 185.451 354.026 185.451C361.173 185.451 366.534 186.727 371.639 188.514V187.238C371.639 178.815 366.279 173.965 356.068 173.965C348.155 173.965 342.794 175.496 336.157 177.794L331.052 162.224C338.965 158.65 346.879 156.353 359.131 156.353C381.339 156.353 391.295 167.839 391.295 187.493V229.353H371.384V229.608ZM371.895 200.51C368.321 198.979 363.726 197.703 358.876 197.703C350.197 197.703 344.836 201.276 344.836 207.657V207.913C344.836 213.528 349.431 216.591 356.068 216.591C365.513 216.591 372.15 211.231 372.15 203.829V200.51H371.895Z" fill="white"/>
<path d="M441.839 177.538C428.31 177.538 419.886 185.706 419.886 203.063V229.608H399.465V157.374H419.886V171.923C423.97 161.968 430.862 155.587 442.86 156.097V177.538H441.839Z" fill="white"/>
<path d="M514.844 200.51H464.557C466.599 209.699 472.981 214.549 482.17 214.549C489.063 214.549 493.913 212.507 499.784 207.147L511.526 217.612C504.889 226.035 495.189 231.14 482.17 231.14C460.473 231.14 444.646 215.825 444.646 193.874V193.619C444.646 172.944 459.197 156.098 480.384 156.098C504.378 156.098 515.61 174.731 515.61 195.15V195.405C515.1 197.447 514.844 198.724 514.844 200.51ZM480.128 172.433C471.705 172.433 466.089 178.559 464.557 187.748H495.444C493.913 178.559 488.552 172.433 480.128 172.433Z" fill="white"/>
<path d="M886 143.08C886 148.951 881.405 153.29 875.534 153.29C869.663 153.29 865.068 148.696 865.068 143.08C865.068 137.465 869.663 132.871 875.534 132.871C881.405 132.871 886 137.465 886 143.08ZM867.621 143.08C867.621 147.675 870.939 151.248 875.534 151.248C879.874 151.248 883.192 147.675 883.192 143.08C883.192 138.486 879.874 134.913 875.279 134.913C870.939 134.913 867.621 138.741 867.621 143.08ZM874.003 148.441H871.705V138.231C872.726 137.976 874.003 137.976 875.534 137.976C877.576 137.976 878.342 138.231 879.108 138.741C879.618 139.252 880.129 140.017 880.129 141.038C880.129 142.059 879.363 143.08 878.087 143.336C879.108 143.591 879.618 144.357 879.874 145.888C880.129 147.42 880.384 148.185 880.64 148.441H878.087C877.832 148.185 877.576 147.164 877.321 145.888C877.066 144.867 876.555 144.357 875.279 144.357H874.258V148.441H874.003ZM874.003 142.57H875.024C876.3 142.57 877.321 142.059 877.321 141.038C877.321 140.017 876.555 139.507 875.024 139.507C874.513 139.507 874.003 139.507 873.747 139.507V142.57H874.003Z" fill="white"/>
</svg>
