<svg width="70" height="48" viewBox="0 0 70 48" fill="none" xmlns="http://www.w3.org/2000/svg">
<path fill-rule="evenodd" clip-rule="evenodd" d="M35 9C43.2843 9 49.9999 15.7157 49.9999 24C49.9999 32.2844 43.2843 39 35 39C26.7157 39 20.0001 32.2844 20.0001 24C20.0001 15.7157 26.7157 9 35 9ZM33.9005 13C33.6338 13 33.3664 13.2914 33.3662 13.583V15.4062C31.2331 15.5523 29.4999 17.5943 29.4999 20.0733C29.5001 22.1147 30.7001 23.9373 32.5 24.5205L36.5664 25.9063C37.0332 26.0521 37.2998 26.4897 37.2998 27C37.2998 27.6562 36.8995 28.2392 36.3662 28.2392H33.7666C33.3665 28.2392 32.8996 28.0211 32.5664 27.7295C32.3664 27.5839 32.1002 27.6561 31.9004 27.8018L30.3662 29.4795C30.1002 29.6982 30.1 30.0627 30.3662 30.2812C31.2329 31.0833 32.3003 31.5942 33.4336 31.667V33.4169C33.4337 33.7813 33.6336 33.9999 33.9668 33.9999H36.0995C36.3662 33.9999 36.6336 33.7813 36.6338 33.4169V31.667C38.7669 31.5209 40.5001 29.479 40.5001 27C40.5001 24.9582 39.2999 23.1351 37.5 22.5518L33.4336 21.1669C32.967 21.0212 32.7003 20.5836 32.7001 20.0733C32.7001 19.4171 33.1005 18.833 33.6338 18.833H36.2334C36.6335 18.833 37.1004 19.0521 37.4336 19.3438C37.6336 19.4894 37.8998 19.4163 38.0996 19.2704L39.6338 17.5938C39.9 17.3751 39.8998 17.0107 39.6338 16.792C38.7671 15.9899 37.6997 15.4792 36.5664 15.4062V13.583C36.5663 13.2914 36.3664 13 36.0332 13H33.9005Z" fill="black"/>
<path fill-rule="evenodd" clip-rule="evenodd" d="M66 0C68.209 0 70 1.79086 70 3.99999V44.0001C70 46.2091 68.209 48 66 48H3.99999C1.79086 48 6.44266e-08 46.2091 0 44.0001V3.99999C6.44266e-08 1.79086 1.79086 0 3.99999 0H66ZM11.7998 3.99999C11.0044 7.91818 7.91815 11.0034 3.99999 11.7988V36.2002C7.91822 36.9956 11.0044 40.0818 11.7998 44.0001H58.2003C58.9956 40.0818 62.0818 36.9956 66 36.2002V11.7988C62.0819 11.0034 58.9955 7.91816 58.2003 3.99999H11.7998Z" fill="black"/>
<path d="M36.0332 13C36.3664 13 36.5663 13.2914 36.5664 13.583V15.4062C37.6997 15.4792 38.7671 15.9899 39.6338 16.792C39.8998 17.0107 39.9 17.3751 39.6338 17.5938L38.0996 19.2704C37.8998 19.4163 37.6336 19.4894 37.4336 19.3438C37.1004 19.0521 36.6335 18.833 36.2334 18.833H33.6338C33.1005 18.833 32.7001 19.4171 32.7001 20.0733C32.7003 20.5836 32.967 21.0212 33.4336 21.1669L37.5 22.5518C39.2999 23.1351 40.5001 24.9582 40.5001 27C40.5001 29.479 38.7669 31.5209 36.6338 31.667V33.4169C36.6336 33.7813 36.3662 33.9999 36.0995 33.9999H33.9668C33.6336 33.9999 33.4337 33.7813 33.4336 33.4169V31.667C32.3003 31.5942 31.2329 31.0833 30.3662 30.2812C30.1 30.0627 30.1002 29.6982 30.3662 29.4795L31.9004 27.8018C32.1002 27.6561 32.3664 27.5839 32.5664 27.7295C32.8996 28.0211 33.3665 28.2392 33.7666 28.2392H36.3662C36.8995 28.2392 37.2998 27.6562 37.2998 27C37.2998 26.4897 37.0332 26.0521 36.5664 25.9063L32.5 24.5205C30.7001 23.9373 29.5001 22.1147 29.4999 20.0733C29.4999 17.5943 31.2331 15.5523 33.3662 15.4062V13.583C33.3664 13.2914 33.6338 13 33.9005 13H36.0332Z" fill="white"/>
<path fill-rule="evenodd" clip-rule="evenodd" d="M58.2003 3.99999C58.9955 7.91816 62.0819 11.0034 66 11.7988V36.2002C62.0818 36.9956 58.9956 40.0818 58.2003 44.0001H11.7998C11.0044 40.0818 7.91822 36.9956 3.99999 36.2002V11.7988C7.91815 11.0034 11.0044 7.91818 11.7998 3.99999H58.2003ZM35 9C26.7157 9 20.0001 15.7157 20.0001 24C20.0001 32.2844 26.7157 39 35 39C43.2843 39 49.9999 32.2844 49.9999 24C49.9999 15.7157 43.2843 9 35 9Z" fill="white"/>
</svg>
