<svg width="400" height="274" viewBox="0 0 400 274" fill="none" xmlns="http://www.w3.org/2000/svg">
<path fill-rule="evenodd" clip-rule="evenodd" d="M200 51.375C247.339 51.375 285.714 89.7105 285.714 137C285.714 184.29 247.339 222.625 200 222.625C152.661 222.625 114.286 184.29 114.286 137C114.286 89.7105 152.661 51.375 200 51.375ZM193.717 74.2083C192.193 74.2084 190.665 75.8718 190.664 77.5363V87.944C178.475 88.778 168.571 100.434 168.571 114.585C168.572 126.238 175.429 136.642 185.714 139.971L208.951 147.882C211.618 148.714 213.142 151.212 213.142 154.125C213.142 157.871 210.854 161.199 207.807 161.199H192.952C190.666 161.199 187.998 159.954 186.094 158.289C184.951 157.458 183.43 157.87 182.288 158.702L173.521 168.279C172.001 169.527 172 171.608 173.521 172.855C178.474 177.434 184.573 180.35 191.049 180.766V190.755C191.05 192.835 192.192 194.083 194.096 194.083H206.283C207.807 194.083 209.335 192.835 209.336 190.755V180.766C221.525 179.932 231.429 168.276 231.429 154.125C231.429 142.47 224.571 132.063 214.286 128.733L191.049 120.828C188.383 119.996 186.859 117.498 186.858 114.585C186.858 110.839 189.146 107.505 192.193 107.505H207.048C209.334 107.505 212.002 108.756 213.906 110.421C215.049 111.252 216.57 110.835 217.712 110.002L226.479 100.431C228 99.1826 227.999 97.1027 226.479 95.8543C221.526 91.2757 215.427 88.3607 208.951 87.944V77.5363C208.95 75.8718 207.808 74.2084 205.904 74.2083H193.717Z" fill="currentColor"/>
<path fill-rule="evenodd" clip-rule="evenodd" d="M377.143 0C389.766 0 400 10.2228 400 22.8333V251.167C400 263.777 389.766 274 377.143 274H22.8571C10.2335 274 3.68152e-07 263.777 0 251.167V22.8333C3.68152e-07 10.2228 10.2335 0 22.8571 0H377.143ZM67.4275 22.8333C62.8825 45.1996 45.2466 62.811 22.8571 67.3516V206.643C45.247 211.183 62.8824 228.8 67.4275 251.167H332.573C337.118 228.8 354.753 211.183 377.143 206.643V67.3516C354.754 62.8109 337.117 45.1995 332.573 22.8333H67.4275Z" fill="currentColor"/>
<path d="M205.904 74.2083C207.808 74.2084 208.95 75.8718 208.951 77.5363V87.944C215.427 88.3607 221.526 91.2757 226.479 95.8543C227.999 97.1027 228 99.1826 226.479 100.431L217.712 110.002C216.57 110.835 215.049 111.252 213.906 110.421C212.002 108.756 209.334 107.505 207.048 107.505H192.193C189.146 107.505 186.858 110.839 186.858 114.585C186.859 117.498 188.383 119.996 191.049 120.828L214.286 128.733C224.571 132.063 231.429 142.47 231.429 154.125C231.429 168.276 221.525 179.932 209.336 180.766V190.755C209.335 192.835 207.807 194.083 206.283 194.083H194.096C192.192 194.083 191.05 192.835 191.049 190.755V180.766C184.573 180.35 178.474 177.434 173.521 172.855C172 171.608 172.001 169.527 173.521 168.279L182.288 158.702C183.43 157.87 184.951 157.458 186.094 158.289C187.998 159.954 190.666 161.199 192.952 161.199H207.807C210.854 161.199 213.142 157.871 213.142 154.125C213.142 151.212 211.618 148.714 208.951 147.882L185.714 139.971C175.429 136.642 168.572 126.238 168.571 114.585C168.571 100.434 178.475 88.778 190.664 87.944V77.5363C190.665 75.8718 192.193 74.2084 193.717 74.2083H205.904Z" class="icon-inner"/>
<path fill-rule="evenodd" clip-rule="evenodd" d="M332.573 22.8333C337.117 45.1995 354.754 62.8109 377.143 67.3516V206.643C354.753 211.183 337.118 228.8 332.573 251.167H67.4275C62.8824 228.8 45.247 211.183 22.8571 206.643V67.3516C45.2466 62.811 62.8825 45.1996 67.4275 22.8333H332.573ZM200 51.375C152.661 51.375 114.286 89.7105 114.286 137C114.286 184.29 152.661 222.625 200 222.625C247.339 222.625 285.714 184.29 285.714 137C285.714 89.7105 247.339 51.375 200 51.375Z" class="icon-inner"/>
</svg>
