<svg width="60" height="60" viewBox="0 0 60 60" fill="none" xmlns="http://www.w3.org/2000/svg">
<path d="M43.4062 20.5938C44.2188 21.3438 44.2188 22.6562 43.4062 23.4062L27.4062 39.4062C26.6562 40.2188 25.3438 40.2188 24.5938 39.4062L16.5938 31.4062C15.7812 30.6562 15.7812 29.3438 16.5938 28.5938C17.3438 27.7812 18.6562 27.7812 19.4062 28.5938L25.9688 35.1562L40.5938 20.5938C41.3438 19.7812 42.6562 19.7812 43.4062 20.5938Z" fill="#333333"/>
<path d="M56 30C56 15.6406 44.3594 4 30 4C15.6406 4 4 15.6406 4 30C4 44.3594 15.6406 56 30 56V60C13.4315 60 0 46.5685 0 30C0 13.4315 13.4315 0 30 0C46.5685 0 60 13.4315 60 30C60 46.5685 46.5685 60 30 60V56C44.3594 56 56 44.3594 56 30Z" fill="#333333"/>
</svg>
