<svg width="70" height="48" viewBox="0 0 70 48" fill="none" xmlns="http://www.w3.org/2000/svg">
<path d="M0 6C0 2.68628 2.68629 0 6 0H63.9999C67.3137 0 70 2.68628 70 6V42C70 45.3138 67.3137 48 63.9999 48H6C2.68629 48 0 45.3138 0 42V6Z" fill="white"/>
<path fill-rule="evenodd" clip-rule="evenodd" d="M63.9999 0C67.3137 0 70 2.68628 70 6V42C70 45.2102 67.4789 47.8316 64.3086 47.9921L63.9999 48H6L5.6914 47.9921C2.5211 47.8316 0 45.2102 0 42V6C0 2.68628 2.68629 0 6 0H63.9999ZM3.99999 16V42C3.99999 43.1045 4.89543 44.0001 6 44.0001H63.9999C65.1045 44.0001 66 43.1045 66 42V16H3.99999Z" fill="#181818"/>
<path d="M15.5455 30.1874C17.0182 30.6874 18 32.25 18 33.9999C18 36.1251 16.5818 37.875 14.8364 38.0001V39.5C14.8364 39.8125 14.6182 39.9999 14.4 39.9999H12.6545C12.3818 39.9999 12.2182 39.8125 12.2182 39.5V38.0001C11.2909 37.9375 10.4182 37.5001 9.70909 36.8125C9.49091 36.6251 9.49091 36.3125 9.70909 36.1251L10.9636 34.6875C11.1273 34.5625 11.3455 34.5001 11.5091 34.625C11.7818 34.875 12.1636 35.0624 12.4909 35.0624H14.6182C15.0545 35.0624 15.3818 34.5625 15.3818 33.9999C15.3818 33.5625 15.1636 33.1874 14.7818 33.0625L11.4545 31.875C9.98182 31.375 9 29.8126 9 28.0625C9 25.9375 10.4182 24.1874 12.1636 24.0625V22.5001C12.1636 22.2499 12.3818 21.9999 12.6 21.9999H14.3454C14.6182 21.9999 14.7818 22.2499 14.7818 22.5001V24.0625C15.7091 24.1251 16.5818 24.5625 17.2909 25.2499C17.5091 25.4375 17.5091 25.7501 17.2909 25.9375L16.0364 27.3751C15.8727 27.5 15.6546 27.5625 15.4909 27.4374C15.2182 27.1874 14.8364 27 14.5091 27H12.3818C11.9454 27 11.6182 27.5 11.6182 28.0625C11.6182 28.5001 11.8364 28.875 12.2182 29.0001L15.5455 30.1874Z" fill="#181818"/>
<path d="M21.9999 26.0001C21.9999 25.4477 22.4478 24.9999 23.0001 24.9999H58.0001C58.5522 24.9999 59 25.4477 59 26.0001V27.9999C59 28.5523 58.5522 29.0001 58.0001 29.0001H23.0001C22.4478 29.0001 21.9999 28.5523 21.9999 27.9999V26.0001Z" fill="#181818"/>
<path d="M21.9999 33.9999C21.9999 33.4478 22.4478 33 23.0001 33H39C39.5523 33 39.9999 33.4478 39.9999 33.9999V36C39.9999 36.5523 39.5523 36.9999 39 36.9999H23.0001C22.4478 36.9999 21.9999 36.5523 21.9999 36V33.9999Z" fill="#181818"/>
</svg>
