<svg width="400" height="274" viewBox="0 0 400 274" fill="none" xmlns="http://www.w3.org/2000/svg">
<path d="M0 34.25C0 15.3342 15.3502 0 34.2857 0H365.714C384.65 0 400 15.3342 400 34.25V239.75C400 258.666 384.65 274 365.714 274H34.2857C15.3502 274 0 258.666 0 239.75V34.25Z" class="icon-bg"/>
<path fill-rule="evenodd" clip-rule="evenodd" d="M365.714 0C384.65 0 400 15.3342 400 34.25V239.75C400 258.075 385.594 273.039 367.478 273.955L365.714 274H34.2857L32.5223 273.955C14.4063 273.039 0 258.075 0 239.75V34.25C0 15.3342 15.3502 0 34.2857 0H365.714ZM22.8571 91.3333V239.75C22.8571 246.055 27.9739 251.167 34.2857 251.167H365.714C372.026 251.167 377.143 246.055 377.143 239.75V91.3333H22.8571Z" fill="currentColor"/>
<path d="M88.8312 172.32C97.2468 175.174 102.857 184.094 102.857 194.083C102.857 206.214 94.7533 216.203 84.7792 216.917V225.479C84.7792 227.263 83.5325 228.333 82.2857 228.333H72.3117C70.7533 228.333 69.8182 227.263 69.8182 225.479V216.917C64.5195 216.56 59.5325 214.063 55.4805 210.138C54.2338 209.068 54.2338 207.284 55.4805 206.214L62.6494 198.008C63.5844 197.294 64.8312 196.938 65.7662 197.651C67.3247 199.078 69.5065 200.148 71.3766 200.148H83.5325C86.026 200.148 87.8961 197.294 87.8961 194.083C87.8961 191.586 86.6494 189.445 84.4675 188.732L65.4545 181.953C57.039 179.099 51.4286 170.18 51.4286 160.19C51.4286 148.06 59.5325 138.07 69.5065 137.357V128.438C69.5065 127.01 70.7533 125.583 72 125.583H81.974C83.5325 125.583 84.4675 127.01 84.4675 128.438V137.357C89.7662 137.714 94.7532 140.211 98.8052 144.135C100.052 145.206 100.052 146.99 98.8052 148.06L91.6364 156.266C90.7013 156.979 89.4546 157.336 88.5195 156.622C86.961 155.195 84.7792 154.125 82.9091 154.125H70.7533C68.2597 154.125 66.3896 156.979 66.3896 160.19C66.3896 162.688 67.6364 164.828 69.8182 165.542L88.8312 172.32Z" fill="currentColor"/>
<path d="M125.714 148.417C125.714 145.264 128.273 142.708 131.429 142.708H331.429C334.584 142.708 337.143 145.264 337.143 148.417V159.833C337.143 162.986 334.584 165.542 331.429 165.542H131.429C128.273 165.542 125.714 162.986 125.714 159.833V148.417Z" fill="currentColor"/>
<path d="M125.714 194.083C125.714 190.931 128.273 188.375 131.429 188.375H222.857C226.013 188.375 228.571 190.931 228.571 194.083V205.5C228.571 208.653 226.013 211.208 222.857 211.208H131.429C128.273 211.208 125.714 208.653 125.714 205.5V194.083Z" fill="currentColor"/>
</svg>
