<svg width="972" height="359" viewBox="0 0 972 359" fill="none" xmlns="http://www.w3.org/2000/svg">
<g clip-path="url(#clip0_8845_220)">
<path fill-rule="evenodd" clip-rule="evenodd" d="M232.12 278C286.276 278 330.24 233.865 330.24 179.5C330.24 125.135 286.276 81 232.12 81C177.965 81 134 125.135 134 179.5C134 233.865 177.965 278 232.12 278ZM274.249 191.715C281.175 196.983 282.534 206.901 277.287 213.854C272.04 220.807 262.16 222.176 255.234 216.909C248.313 211.642 246.949 201.718 252.196 194.77C257.443 187.817 267.323 186.448 274.249 191.715ZM272.171 143.877C272.171 143.877 272.103 143.824 271.972 143.724C267.591 140.39 262.065 138.941 256.614 139.694C251.167 140.448 246.24 143.345 242.919 147.748C224.449 172.215 192.07 215.123 192.07 215.123C192.07 215.123 192.138 215.176 192.269 215.276C196.655 218.61 202.175 220.059 207.627 219.306C213.074 218.553 218.001 215.655 221.322 211.252C239.792 186.785 272.171 143.877 272.171 143.877ZM209.007 142.091C215.928 147.358 217.292 157.277 212.045 164.23C206.798 171.183 196.918 172.552 189.992 167.285C183.071 162.018 181.707 152.094 186.954 145.146C192.201 138.193 202.081 136.824 209.007 142.091Z" fill="white"/>
<path d="M421.977 125.443C432.525 125.501 442.809 129.673 450.994 136.989C451.52 137.479 452.148 137.964 452.411 138.633C453.094 140.413 451.309 142.109 449.839 143.895C447.268 147.003 444.75 150.232 442.179 153.16C441.13 154.272 439.45 154.129 438.034 152.981C429.744 146.234 417.36 143.863 407.917 152.049C397.474 161.051 395.952 177.585 398.523 190.585C399.941 197.812 403.35 205.002 409.7 209.158C417.098 214.025 427.487 213.451 434.728 208.889C436.723 207.62 438.401 206.092 440.291 204.533C441.287 203.685 442.967 203.801 443.911 204.807C447.217 208.573 450.365 212.476 453.619 216.322C453.775 216.479 453.775 216.49 453.828 216.564C454.51 217.649 454.247 219.076 453.25 220.125C439.871 234.394 416.888 238.102 398.209 228.5C384.514 221.478 375.489 207.03 373.285 190.77C372.971 188.552 372.76 186.319 372.656 184.085C372.13 172.034 374.229 159.797 380.42 149.105C388.554 135.035 404.033 125.617 421.349 125.443C421.559 125.443 421.768 125.443 421.977 125.443Z" fill="white"/>
<path d="M514.98 149.733C524.267 149.854 532.978 154.305 536.808 164.713C538.75 170.049 539.38 175.87 539.433 181.543C539.538 197.297 539.433 213.047 539.433 228.801C539.433 230.166 538.278 231.382 536.862 231.435C530.513 231.514 524.162 231.435 517.762 231.435C516.397 231.414 515.191 230.271 515.138 228.865C514.98 214.163 515.191 199.462 515.138 184.761C515.138 179.857 515.242 174.042 510.73 171.629C505.536 168.885 498.662 171.318 495.147 175.69C493.152 178.182 492.051 181.358 491.999 184.577C491.946 199.315 491.999 214.058 491.999 228.801C491.999 230.16 490.844 231.382 489.428 231.435C483.077 231.514 476.677 231.435 470.328 231.435C468.964 231.414 467.757 230.271 467.704 228.865C467.285 195.612 467.704 162.353 467.704 129.095C467.704 127.741 468.859 126.52 470.275 126.467C476.624 126.388 483.026 126.467 489.375 126.467C490.739 126.483 491.999 127.683 491.999 129.095V159.146C492.155 159.009 492.313 158.866 492.471 158.73C496.039 155.717 499.973 152.962 504.223 151.413C507.634 150.17 511.307 149.706 514.98 149.733Z" fill="white"/>
<path d="M576.899 199.289C578.264 205.979 582.829 212.079 590.018 214.064C597.206 216.045 605.077 214.307 611.531 210.762C611.531 210.762 613.997 210.03 614.994 211.763C617.04 215.339 619.086 218.937 620.923 222.476C622.131 225.1 617.931 227.222 614.26 228.924C613.577 229.24 612.895 229.54 612.214 229.83C595.476 236.73 574.225 235.15 561.842 219.395C552.606 207.622 550.876 190.219 555.807 176.24C560.791 162.155 573.594 150.861 589.231 150.166C589.808 150.14 590.438 150.134 591.068 150.134C603.608 150.245 616.568 156.471 621.92 171.146C624.649 178.71 625.226 187.137 624.333 194.823C624.333 194.933 624.335 195.044 624.282 195.154C624.019 197.367 622.025 199.242 619.665 199.289C611.059 199.331 602.453 199.289 593.795 199.289H576.899ZM591.171 168.965C586.712 168.997 582.2 171.178 579.575 175.128C578.106 177.404 577.215 180.053 576.742 182.755L603.87 182.839C603.766 177.256 601.929 170.972 595.476 169.418C594.058 169.081 592.64 168.965 591.171 168.965Z" fill="white"/>
<path d="M656.629 152.042C657.94 152.115 659.042 153.179 659.149 154.47L659.882 164.609C659.986 164.494 660.039 164.378 660.091 164.262C665.024 156.319 673.525 150.066 682.864 150.135C683.231 150.14 683.652 150.145 684.072 150.161C686.276 150.229 688.636 150.245 690.577 151.241C691.575 151.741 692.151 152.916 691.995 154.006C691.049 159.458 689.947 164.873 688.899 170.298C688.899 170.477 688.845 170.488 688.845 170.556C688.427 171.952 686.904 172.621 685.226 172.258C679.558 171.03 673.525 171.847 668.908 175.95C665.024 179.411 662.82 184.647 662.715 189.84C662.611 202.935 662.715 216.077 662.715 229.203C662.715 230.573 661.562 231.784 660.197 231.837C653.795 231.895 647.446 231.837 641.046 231.837C639.681 231.821 638.475 230.678 638.422 229.272C637.95 204.404 638.422 179.537 638.422 154.67C638.475 153.295 639.575 152.089 640.993 152.036C646.187 151.989 651.331 152.036 656.524 152.036C656.577 152.036 656.576 152.036 656.629 152.042Z" fill="white"/>
<path d="M718.892 152.079C720.152 152.153 721.252 153.217 721.358 154.507L722.145 164.647C722.302 164.368 722.46 164.094 722.67 163.82C727.496 156.388 735.263 150.404 744.183 150.177C747.121 150.103 750.269 149.972 752.84 151.278C753.784 151.773 754.363 152.932 754.205 154.044C753.207 159.474 752.159 164.905 751.162 170.336C751.162 170.336 750.111 172.811 748.065 172.427C745.075 171.779 741.979 171.352 738.989 172C732.692 173.37 727.445 178.426 725.661 184.995C724.401 189.498 724.978 194.434 724.978 199.306C724.978 203.093 724.978 206.881 724.978 210.668V229.304C724.925 230.6 724.559 230.79 724.087 231.19C723.667 231.606 723.037 231.848 722.407 231.874C716.058 231.932 709.658 231.874 703.309 231.874C701.944 231.859 700.738 230.689 700.685 229.304V154.644C700.738 153.306 701.838 152.126 703.203 152.074C708.398 152.026 713.592 152.074 718.734 152.074C718.839 152.074 718.839 152.074 718.892 152.079Z" fill="white"/>
<path d="M835.467 152.18C837.094 152.238 838.407 154.055 837.882 155.666L811.647 232.418C807.186 243.948 801.572 255.794 789.923 260.519C782.997 263.311 774.97 263.485 768.096 261.841C766.784 261.531 765.525 261.198 764.213 260.846C764.213 260.846 763.321 260.619 762.744 259.966C762.166 259.277 762.008 258.281 762.27 257.407C763.74 253.055 765.262 248.705 766.731 244.353C767.15 243.189 768.412 242.426 769.67 242.621C769.67 242.621 771.927 242.889 772.922 243.084C777.802 244.001 783.155 242.305 786.198 237.727C787.038 236.495 787.668 235.151 788.191 233.756C788.454 233.039 788.298 233.524 788.454 232.765C788.979 230.432 788.77 227.967 787.93 225.718C778.852 202.336 769.249 179.149 760.329 155.709C759.806 154.149 761.012 152.222 762.796 152.174C769.091 152.143 775.389 152.127 781.684 152.174C782.786 152.206 783.785 152.922 784.152 153.923L800.156 199.128C805.35 184.053 810.283 168.893 815.687 153.907C815.739 153.739 815.739 153.733 815.739 153.665C816.16 152.801 817.104 152.206 818.101 152.174C823.871 152.127 829.697 152.053 835.467 152.18Z" fill="white"/>
</g>
<defs>
<clipPath id="clip0_8845_220">
<rect width="704" height="197" fill="white" transform="translate(134 81)"/>
</clipPath>
</defs>
</svg>
