<svg width="200" height="75" viewBox="0 0 200 75" fill="none" xmlns="http://www.w3.org/2000/svg">
<path d="M55.8584 52.1348C56.5489 52.3749 56.9154 52.9116 56.9154 52.9116C55.506 57.6717 52.3491 61.9515 45.5421 61.9515C38.2982 61.9515 31.9844 56.6406 31.9844 48.2504C31.9844 38.8857 39.1719 33.6877 46.8951 33.6877C50.1929 33.6877 52.9974 34.394 55.1114 35.5805C55.1114 35.5805 55.2664 35.6793 55.3651 35.8064C55.4638 35.9336 55.4919 36.1172 55.4919 36.1172L55.7597 43.2079C55.7597 43.2079 55.3933 43.6457 54.0121 43.6457C52.631 43.6457 52.7438 43.2079 52.7438 43.2079L52.6733 42.2332C52.6733 39.0975 50.1365 37.0353 46.8528 37.0353C41.6101 37.0353 39.3411 42.0214 39.3411 47.1063C39.3411 52.5726 42.5825 57.1773 47.6561 57.1773C50.4747 57.1773 52.2787 55.5812 54.2799 52.0924C54.2799 52.0924 54.9846 51.824 55.8584 52.1348ZM167.562 56.2168H166.913C165.828 56.2168 164.757 55.1292 164.757 54.0557V35.0155C164.757 35.0155 164.715 34.4505 164.123 34.4505H162.474C162.15 34.4505 161.91 34.7188 161.91 34.7188L159.613 37.7133C159.345 38.0664 159.035 37.7133 159.035 37.7133C157.499 35.9053 154.92 33.6736 150.283 33.6736C143.321 33.6736 136.669 38.7585 136.669 48.0809C136.669 56.796 142.391 61.9374 149.424 61.9374C153.426 61.9374 155.963 60.2565 157.964 57.6576V60.878C157.964 60.878 157.992 61.6125 158.81 61.7961C159.557 61.9656 160.12 61.7255 160.12 61.7255L167.576 58.5333C167.576 58.5333 168.013 58.1378 168.013 57.3044C168.013 56.4711 167.576 56.2168 167.576 56.2168M150.833 58.3779C146.027 58.3779 144.026 53.6179 144.026 47.8267C144.026 42.0355 146.027 37.2754 150.833 37.2754C155.639 37.2754 157.64 42.0355 157.64 47.8267C157.64 53.6179 155.639 58.3779 150.833 58.3779ZM71.9388 58.2791C71.9388 58.2791 72.3757 58.5474 72.3757 59.6068C72.3757 60.6662 71.9388 61.2029 71.9388 61.2029H59.1844C59.1844 61.2029 58.7475 60.539 58.7475 59.522C58.7475 58.5051 59.1844 58.2932 59.1844 58.2932H59.8327C60.9178 58.2932 61.9889 57.2056 61.9889 56.1321V40.1852C61.9889 39.0975 60.9038 38.024 59.8327 38.024H59.1844C59.1844 38.024 58.7475 37.8122 58.7475 36.7952C58.7475 35.7782 59.1844 35.1143 59.1844 35.1143H71.9388C71.9388 35.1143 72.3757 35.6511 72.3757 36.7104C72.3757 37.7698 71.9388 38.0382 71.9388 38.0382H71.2905C70.2053 38.0382 69.1342 39.1258 69.1342 40.1993V56.1462C69.1342 57.2338 70.2194 58.3073 71.2905 58.3073H71.9388M65.5686 22.5997C68.0349 22.5997 70.0362 24.6478 70.0362 27.1903C70.0362 29.7328 68.0349 31.7809 65.5686 31.7809C63.1023 31.7809 61.1011 29.7186 61.1011 27.1903C61.1011 24.662 63.1023 22.5997 65.5686 22.5997ZM106.834 65.2567V68.6184C107.228 68.0252 107.806 67.5167 108.779 67.5167C110.174 67.5167 110.991 68.4631 110.991 69.9179V73.887H109.568V70.3417C109.568 69.3671 109.089 68.8162 108.229 68.8162C107.369 68.8162 106.82 69.3953 106.82 70.3699V73.887H105.396V65.2567H106.834ZM112.372 70.7795V70.7513C112.372 68.9716 113.627 67.5026 115.417 67.5026C117.404 67.5026 118.404 69.0563 118.404 70.8643C118.404 70.9914 118.404 71.1185 118.376 71.2598H113.796C113.951 72.2768 114.67 72.8418 115.586 72.8418C116.276 72.8418 116.784 72.5875 117.277 72.0931L118.108 72.8418C117.516 73.548 116.699 74.0141 115.557 74.0141C113.754 74.0141 112.358 72.7005 112.358 70.7795M116.967 70.3134C116.868 69.3953 116.333 68.6749 115.388 68.6749C114.515 68.6749 113.909 69.3529 113.768 70.3134H116.967ZM123.619 73.1101C123.196 73.6186 122.548 74.0141 121.603 74.0141C120.42 74.0141 119.391 73.3361 119.391 72.0931V72.0649C119.391 70.6807 120.462 70.0168 121.914 70.0168C122.675 70.0168 123.154 70.1298 123.633 70.271V70.158C123.633 69.2964 123.083 68.8162 122.097 68.8162C121.406 68.8162 120.885 68.9716 120.321 69.2117L119.926 68.0676C120.617 67.7568 121.279 67.545 122.294 67.545C124.126 67.545 125.028 68.5196 125.028 70.1863V73.887H123.619V73.1101ZM123.661 71.2598C123.295 71.1185 122.787 71.0055 122.238 71.0055C121.336 71.0055 120.814 71.3728 120.814 71.9801V72.0084C120.814 72.6016 121.35 72.9265 122.012 72.9265C122.956 72.9265 123.661 72.3898 123.661 71.6129V71.2598ZM126.818 65.2426H128.241V73.8729H126.818V65.2426ZM130.398 72.1355V68.8444H129.608V67.6156H130.398V65.9065H131.821V67.6156H133.498V68.8444H131.821V71.9095C131.821 72.4604 132.103 72.6864 132.582 72.6864C132.906 72.6864 133.188 72.6158 133.47 72.4745V73.6469C133.118 73.8446 132.709 73.9717 132.187 73.9717C131.145 73.9717 130.398 73.5056 130.398 72.1355ZM136.359 65.2426V68.6043C136.754 68.0111 137.332 67.5026 138.304 67.5026C139.699 67.5026 140.517 68.4489 140.517 69.9038V73.8729H139.093V70.3275C139.093 69.3529 138.614 68.8021 137.754 68.8021C136.895 68.8021 136.345 69.3812 136.345 70.3558V73.8729H134.922V65.2426H136.359ZM141.898 70.7795V70.7513C141.898 68.9716 143.265 67.4884 145.125 67.4884C146.309 67.4884 147.042 67.9263 147.606 68.5619L146.718 69.5224C146.281 69.0563 145.816 68.7456 145.097 68.7456C144.054 68.7456 143.307 69.6496 143.307 70.7372V70.7654C143.307 71.8813 144.068 72.7711 145.167 72.7711C145.844 72.7711 146.337 72.4463 146.788 71.9943L147.648 72.8418C147.028 73.5339 146.309 74.0141 145.097 74.0141C143.251 74.0141 141.884 72.5593 141.884 70.7937M152.764 73.1101C152.341 73.6186 151.693 74.0141 150.748 74.0141C149.564 74.0141 148.536 73.3361 148.536 72.0931V72.0649C148.536 70.6807 149.607 70.0168 151.058 70.0168C151.819 70.0168 152.299 70.1298 152.778 70.271V70.158C152.778 69.2964 152.242 68.8162 151.242 68.8162C150.551 68.8162 150.03 68.9716 149.466 69.2117L149.071 68.0676C149.762 67.7568 150.424 67.545 151.439 67.545C153.271 67.545 154.173 68.5196 154.173 70.1863V73.887H152.764V73.1101ZM152.806 71.2598C152.44 71.1185 151.932 71.0055 151.383 71.0055C150.481 71.0055 149.959 71.3728 149.959 71.9801V72.0084C149.959 72.6016 150.495 72.9265 151.157 72.9265C152.101 72.9265 152.806 72.3898 152.806 71.6129V71.2598ZM157.302 67.6297V69.0422C157.696 68.1099 158.415 67.4743 159.5 67.5167V69.0281H159.416C158.161 69.0281 157.288 69.8473 157.288 71.4999V73.8729H155.864V67.6297H157.302ZM160.191 70.7654V70.7372C160.191 68.9574 161.445 67.4884 163.235 67.4884C165.222 67.4884 166.223 69.0422 166.223 70.8502C166.223 70.9773 166.223 71.1044 166.195 71.2457H161.614C161.769 72.2626 162.488 72.8276 163.404 72.8276C164.095 72.8276 164.602 72.5734 165.095 72.079L165.927 72.8276C165.335 73.5339 164.517 74 163.376 74C161.572 74 160.177 72.6864 160.177 70.7654M164.785 70.2993C164.687 69.3812 164.151 68.6608 163.207 68.6608C162.333 68.6608 161.727 69.3388 161.586 70.2993H164.785ZM135.739 58.2791C135.739 58.2791 136.176 58.5051 136.176 59.6068C136.176 60.7085 135.739 61.1888 135.739 61.1888H122.985C122.985 61.1888 122.548 60.5955 122.548 59.4938C122.548 58.3921 122.985 58.2791 122.985 58.2791H123.633C124.718 58.2791 125.789 57.1914 125.789 56.118V43.222C125.789 39.6484 123.633 38.024 120.716 38.024C117.319 38.024 114.67 40.6795 114.67 45.1147V56.118C114.67 57.2056 115.755 58.2791 116.826 58.2791H117.474C117.474 58.2791 117.911 58.3497 117.911 59.5362C117.911 60.7227 117.474 61.1888 117.474 61.1888H104.72C104.72 61.1888 104.283 60.6803 104.283 59.5079C104.283 58.3356 104.72 58.2649 104.72 58.2649H105.368C106.453 58.2649 107.524 57.1773 107.524 56.1038V41.1456C107.524 40.058 106.439 38.9845 105.368 38.9845H104.72C104.438 38.5325 104.283 38.1794 104.283 37.5156C104.283 36.7669 104.551 36.3008 104.72 36.0748C107.792 36.0748 111.428 34.7895 112.147 34.507C113.218 34.0832 114.106 34.394 114.106 35.3262C114.106 35.6652 114.106 38.5043 114.106 38.5043C116.051 35.637 119.236 33.6877 123.393 33.6877C129.017 33.6877 132.906 36.7246 132.906 42.9395V56.1038C132.906 57.1914 133.991 58.2649 135.063 58.2649H135.711L135.739 58.2791ZM101.943 37.2896C101.943 36.6398 101.704 35.9336 101.521 35.6652H94.3471C92.4163 34.394 90.0063 33.6595 87.3427 33.6595C80.6766 33.6595 75.7722 38.137 75.7722 43.7446C75.7722 47.1911 77.6607 50.0019 80.2397 51.7251L75.7017 57.3751C75.7017 57.3751 75.1239 58.4203 75.1239 59.4655C75.1239 60.5108 75.7862 61.2029 75.7862 61.2029H78.9995C76.6318 62.6013 75.5608 64.946 75.5608 66.9376C75.5608 70.8219 78.9572 74 86.5394 74C94.1216 74 101.281 69.9603 101.281 63.59C101.281 59.0559 98.5891 55.9908 91.8667 55.9908H81.6913L83.6785 53.293C84.8059 53.6744 85.722 53.8297 87.3427 53.8297C93.9666 53.8297 98.9133 49.2957 98.9133 43.7446C98.9133 42.0214 98.4341 40.397 97.5885 38.9845H101.521C101.732 38.6173 101.957 38.1229 101.957 37.2896M83.6926 61.2029H89.7245C93.3324 61.2029 94.5726 63.2086 94.5726 65.2709C94.5726 67.8557 92.0922 70.497 87.6246 70.497C83.4248 70.497 81.0571 68.6043 81.0571 65.8076C81.0571 63.9149 82.1282 62.0221 83.6926 61.2029ZM87.3568 50.4822C84.3409 50.4822 82.4101 47.9538 82.4101 43.7446C82.4101 39.5354 84.3409 37.0071 87.3568 37.0071C90.3728 37.0071 92.2472 39.5354 92.2472 43.7446C92.2472 47.9538 90.3164 50.4822 87.3568 50.4822Z" fill="#828282"/>
<path fill-rule="evenodd" clip-rule="evenodd" d="M62.2285 11.4976C62.2285 8.61615 63.5392 6.0313 65.5827 4.30807C67.6121 6.04543 68.9087 8.63027 68.8946 11.5117C68.8946 14.3932 67.584 16.978 65.5545 18.7013C63.5251 16.9639 62.2285 14.3791 62.2285 11.4976ZM72.3616 4.12445C71.516 6.1443 71.671 8.33365 72.6012 10.1416C74.5319 9.52014 76.1949 8.09353 77.0264 6.07368C77.872 4.05383 77.7029 1.86448 76.7869 0.0564993C74.8561 0.677992 73.1931 2.1046 72.3616 4.12445ZM54.0967 6.01718C54.9282 8.03703 56.5771 9.47776 58.5079 10.0993C59.4381 8.29128 59.6072 6.10193 58.7757 4.08208C57.9442 2.06223 56.2953 0.621493 54.3645 0C53.4343 1.80798 53.2652 3.99733 54.0967 6.01718ZM42.512 20.3115C44.5274 21.159 46.7118 21.0036 48.5158 20.0714C47.8957 18.1363 46.4723 16.4696 44.4569 15.6362C42.4416 14.7887 40.2571 14.9441 38.4532 15.8763C39.0733 17.8114 40.4967 19.4781 42.512 20.3115ZM86.6099 15.7209C84.5945 16.5543 83.157 18.2069 82.5369 20.142C84.3408 21.0743 86.5253 21.2437 88.5406 20.4104C90.556 19.577 91.9935 17.9244 92.6136 15.9893C90.8097 15.0571 88.6252 14.8876 86.6099 15.7209ZM81.1417 23.871C78.2667 23.871 75.6876 25.1563 73.9541 27.2044C75.6735 29.2525 78.2526 30.552 81.1276 30.552C84.0026 30.552 86.5817 29.2667 88.3152 27.2186C86.5958 25.1705 84.0167 23.871 81.1417 23.871ZM74.236 13.7576C72.1925 15.7916 71.2905 18.5318 71.5019 21.2014C74.1655 21.4274 76.8996 20.5234 78.9431 18.4894C80.9866 16.4554 81.8886 13.7152 81.6772 11.0456C79.0136 10.8196 76.2795 11.7236 74.236 13.7576ZM49.9251 23.871C47.0501 23.871 44.471 25.1846 42.7516 27.2186C44.4851 29.2525 47.0642 30.552 49.9392 30.552C52.8142 30.552 55.3933 29.2384 57.1127 27.2044C55.3792 25.1705 52.8001 23.871 49.9251 23.871ZM56.8308 13.7576C54.7873 11.7236 52.0532 10.8196 49.3896 11.0456C49.1782 13.7152 50.0801 16.4554 52.1236 18.4894C54.1672 20.5234 56.9013 21.4274 59.5649 21.2014C59.7763 18.5318 58.8743 15.7916 56.8308 13.7576Z" fill="#828282"/>
</svg>
