<svg width="400" height="274" viewBox="0 0 400 274" fill="none" xmlns="http://www.w3.org/2000/svg">
<path d="M0 34.25C0 15.3342 15.3502 0 34.2857 0H365.714C384.65 0 400 15.3342 400 34.25V239.75C400 258.666 384.65 274 365.714 274H34.2857C15.3502 274 0 258.666 0 239.75V34.25Z" class="icon-bg"/>
<path fill-rule="evenodd" clip-rule="evenodd" d="M365.714 0C384.65 0 400 15.3342 400 34.25V239.75C400 258.666 384.65 274 365.714 274H34.2857L32.5223 273.955C14.4063 273.039 0 258.075 0 239.75V34.25C0 15.3342 15.3502 0 34.2857 0H365.714ZM22.8571 239.75C22.8571 246.055 27.9739 251.167 34.2857 251.167H365.714C372.026 251.167 377.143 246.055 377.143 239.75V159.833H22.8571V239.75ZM34.2857 22.8333C27.9739 22.8333 22.8571 27.9448 22.8571 34.25V68.5H377.143V34.25C377.143 27.9448 372.026 22.8333 365.714 22.8333H34.2857Z" fill="currentColor"/>
<path d="M45.7143 205.5C45.7143 202.347 48.2727 199.792 51.4286 199.792H137.143C140.299 199.792 142.857 202.347 142.857 205.5V216.917C142.857 220.069 140.299 222.625 137.143 222.625H51.4286C48.2727 222.625 45.7143 220.069 45.7143 216.917V205.5Z" fill="currentColor"/>
<path d="M160 205.5C160 202.347 162.558 199.792 165.714 199.792H251.429C254.584 199.792 257.143 202.347 257.143 205.5V216.917C257.143 220.069 254.584 222.625 251.429 222.625H165.714C162.558 222.625 160 220.069 160 216.917V205.5Z" fill="currentColor"/>
</svg>
