<svg width="70" height="48" viewBox="0 0 70 48" fill="none" xmlns="http://www.w3.org/2000/svg">
<path d="M0 6C0 2.68628 2.68629 0 6 0H63.9999C67.3137 0 70 2.68628 70 6V42C70 45.3138 67.3137 48 63.9999 48H6C2.68629 48 0 45.3138 0 42V6Z" fill="white"/>
<path fill-rule="evenodd" clip-rule="evenodd" d="M63.9999 0C67.3137 0 70 2.68628 70 6V42C70 45.3138 67.3137 48 63.9999 48H6L5.6914 47.9921C2.5211 47.8316 0 45.2102 0 42V6C0 2.68628 2.68629 0 6 0H63.9999ZM3.99999 42C3.99999 43.1045 4.89543 44.0001 6 44.0001H63.9999C65.1045 44.0001 66 43.1045 66 42V27.9999H3.99999V42ZM6 3.99999C4.89543 3.99999 3.99999 4.89544 3.99999 6V12H66V6C66 4.89544 65.1045 3.99999 63.9999 3.99999H6Z" fill="#181818"/>
<path d="M8 36C8 35.4476 8.44772 35.0001 9 35.0001H24C24.5523 35.0001 25 35.4476 25 36V38.0001C25 38.5522 24.5523 39 24 39H9C8.44772 39 8 38.5522 8 38.0001V36Z" fill="#181818"/>
<path d="M28 36C28 35.4476 28.4477 35.0001 29 35.0001H44.0001C44.5522 35.0001 45 35.4476 45 36V38.0001C45 38.5522 44.5522 39 44.0001 39H29C28.4477 39 28 38.5522 28 38.0001V36Z" fill="#181818"/>
</svg>
