<svg width="452" height="310" viewBox="0 0 452 310" fill="none" xmlns="http://www.w3.org/2000/svg">
<g clip-path="url(#clip0_8727_2179)">
<rect width="452" height="310" rx="6" fill="#181818"/>
<path d="M190.282 303.542L445.34 229.271V298.542C445.34 301.303 443.101 303.542 440.34 303.542H190.282Z" fill="#FD6020"/>
<path d="M160.486 155.369C160.487 137.326 174.519 122.752 192.761 124.14C197.672 124.14 203.285 124.834 207.494 127.61V141.49C203.986 137.326 198.374 134.55 192.761 134.55C181.535 135.244 172.414 144.959 173.115 156.063V157.451C173.115 168.554 182.236 176.882 193.462 176.882C199.075 176.882 203.986 174.107 207.494 169.943V183.822C202.583 185.904 197.671 187.292 192.059 187.292C174.519 187.291 160.486 172.718 160.486 155.369ZM302.912 165.779L319.751 124.14H332.38L306.421 187.292H300.106L274.146 124.14H286.775L302.912 165.779ZM117.688 139.408C118.39 129.692 126.81 122.059 136.632 122.752C142.946 122.752 149.261 125.528 154.172 129.692L147.858 138.02C145.052 135.244 141.543 133.162 138.035 133.162C133.826 132.468 130.318 135.938 129.616 140.102C129.616 143.572 131.722 144.96 138.737 147.736C152.769 153.288 156.277 157.451 156.979 165.779V167.861C156.277 178.964 147.156 187.292 135.931 186.598C127.511 186.598 119.092 182.434 114.883 174.8L122.601 167.167C124.705 172.024 129.617 175.495 135.229 175.495H135.931C140.14 175.495 144.35 171.33 144.35 166.472C144.349 163.697 142.946 161.615 140.842 160.227C138.035 158.839 135.229 157.451 132.423 156.757C121.197 153.288 117.689 148.429 117.688 140.102V139.408ZM63.665 124.14C80.5034 124.834 93.8341 138.714 93.1328 155.369C93.1328 164.39 88.9232 172.719 81.9072 178.964C75.5928 183.822 67.8749 186.598 60.1572 185.904H42.6172V124.14H63.665ZM109.972 185.904H98.0439V124.14H109.972V185.904ZM371.67 134.55H349.92V148.429H370.968V158.839H349.92V175.495H371.67V185.904H337.993V124.14H371.67V134.55ZM396.928 124.14C410.959 124.14 418.677 130.386 418.678 142.183C419.379 151.205 413.065 158.839 404.646 160.227L423.589 185.904H408.855L392.718 160.92H391.315V185.904H379.388V124.14H396.928ZM74.1895 139.408C69.9799 135.938 63.6654 133.855 58.0527 134.549H54.5439V175.494H58.0527C63.6655 176.188 69.9799 174.106 74.1895 170.636C78.3989 166.472 80.5038 160.921 80.5039 154.675C80.5038 149.124 78.3989 143.571 74.1895 139.408ZM391.314 152.593H394.823C402.54 152.593 406.049 149.123 406.049 142.877C406.049 137.326 402.54 133.856 394.823 133.856H391.314V152.593Z" fill="white"/>
<path fill-rule="evenodd" clip-rule="evenodd" d="M243.276 122.708C225.736 122.708 211.002 136.588 211.002 154.631C211.002 171.981 225.034 186.554 243.276 187.248C261.518 187.942 275.55 173.369 276.251 155.325C275.55 137.282 261.518 122.708 243.276 122.708V122.708Z" fill="#FD6020"/>
</g>
<defs>
<clipPath id="clip0_8727_2179">
<path d="M0 16C0 7.16345 7.16344 0 16 0H436C444.837 0 452 7.16344 452 16V294C452 302.837 444.837 310 436 310H16C7.16345 310 0 302.837 0 294V16Z" fill="white"/>
</clipPath>
</defs>
</svg>
