<svg width="800" height="800" viewBox="0 0 800 800" fill="none" xmlns="http://www.w3.org/2000/svg">
<rect width="800" height="800" rx="80" fill="black"/>
<path d="M524 401C524 469.781 468.297 525 400 525C331.219 525 276 469.781 276 401C276 332.703 331.219 277 400 277C468.297 277 524 332.703 524 401ZM400 300.25C344.297 300.25 299.25 345.781 299.25 401C299.25 456.703 344.297 501.75 400 501.75C455.219 501.75 500.75 456.703 500.75 401C500.75 345.781 455.219 300.25 400 300.25Z" fill="#0065FF"/>
<path d="M422.957 352.172C418.598 350.719 413.754 349.266 408.91 348.782V342C408.91 336.188 404.551 331.344 398.739 331.344C392.926 331.344 388.082 336.188 388.082 342V349.75C385.176 350.719 382.27 351.204 379.848 352.657C371.129 356.532 362.895 363.313 360.957 373.969C358.535 385.11 363.379 395.282 373.067 401.094C379.848 405.454 389.051 408.36 396.317 410.297C397.285 410.782 398.254 410.782 399.707 411.266C405.52 412.719 411.332 414.172 416.176 417.563C421.989 421.438 419.082 428.704 413.27 430.641C408.91 432.579 402.614 433.547 394.379 432.094C388.567 431.125 383.239 429.188 377.426 427.25C376.457 427.25 375.004 426.766 374.035 426.282C368.707 424.344 362.41 427.25 360.957 433.063C359.02 438.391 361.926 444.204 367.254 446.141C374.035 448.563 381.301 450.5 388.082 451.954V460.672C388.082 466.485 392.926 470.844 398.739 470.844C404.551 470.844 408.91 466.485 408.91 460.672V453.407C413.27 452.922 417.629 451.954 421.504 450.016C430.223 446.625 437.973 439.36 439.91 428.704C441.848 417.563 437.489 406.907 428.285 400.61C421.02 395.282 411.332 392.86 403.582 390.438C402.614 390.438 401.645 389.954 400.192 389.469C394.864 388.016 389.051 386.563 384.207 383.657C378.395 379.782 382.754 373.969 388.082 371.547C393.895 369.125 401.16 368.641 407.942 369.61L418.114 372.516C418.598 372.516 419.567 373 420.051 373C425.863 374.454 431.676 371.547 433.129 365.735C434.582 360.407 431.192 354.594 425.864 352.657C424.895 352.657 423.926 352.172 422.957 352.172Z" fill="white"/>
</svg>
