<svg width="800" height="800" viewBox="0 0 800 800" fill="none" xmlns="http://www.w3.org/2000/svg">
<rect width="800" height="800" rx="80" fill="black"/>
<path d="M400 276C468.297 276 524 331.703 524 400C524 468.781 468.297 524 400 524C331.219 524 276 468.781 276 400C276 331.703 331.219 276 400 276ZM400 500.75C455.219 500.75 500.75 455.703 500.75 400C500.75 344.781 455.219 299.25 400 299.25C344.297 299.25 299.25 344.781 299.25 400C299.25 455.703 344.297 500.75 400 500.75Z" fill="#0065FF"/>
<path d="M415.5 454.25C415.5 445.531 408.234 438.75 400 438.75C391.281 438.75 384.5 445.531 384.5 454.25C384.5 462.969 390.797 469.75 400 469.75C408.234 469.75 415.5 462.969 415.5 454.25Z" fill="white"/>
<path d="M449.891 371.906C450.375 353.016 435.359 338 415.984 338H391.281C372.391 338 357.375 353.016 357.375 371.906C357.375 378.203 362.703 383.531 369 383.531C375.297 383.531 380.625 378.203 380.625 371.906C380.625 366.094 384.984 361.25 390.797 361.25H415.5C421.797 361.25 427.125 366.094 427.125 371.906C427.125 375.781 425.188 379.172 421.797 381.109L394.188 397.578C390.312 400 388.375 403.875 388.375 407.75V415.5C388.375 421.797 393.703 427.125 400 427.125C406.297 427.125 411.625 421.797 411.625 415.5V414.531L433.422 400.969C443.594 394.672 449.891 383.531 449.891 371.906Z" fill="white"/>
</svg>
