<svg width="200" height="28" viewBox="0 0 200 28" fill="none" xmlns="http://www.w3.org/2000/svg">
<path fill-rule="evenodd" clip-rule="evenodd" d="M44.5724 3.9508V0C44.5724 0 34.8201 0.00277444 34.7331 0.00647368C33.7556 0.0404751 32.7923 0.251031 31.8899 0.627947C30.6252 1.16073 29.5138 2.00097 28.657 3.07223C27.8056 4.13986 27.2208 5.39455 26.9508 6.73263C26.6953 8.01422 26.7304 9.33671 27.0536 10.603C27.3526 11.768 27.8946 12.8569 28.6441 13.7982C29.4248 14.7794 30.4189 15.57 31.5511 16.1102C32.7792 16.6959 34.1369 16.9576 35.495 16.8704C36.4646 16.8038 37.4147 16.5658 38.3011 16.1676L38.3418 16.1491L38.39 16.1259C38.7088 15.977 39.0177 15.8077 39.3148 15.6191C39.3769 15.5803 39.437 15.5396 39.4981 15.4998L39.5167 15.4869L39.5185 15.486L39.537 15.4721C40.4492 14.8481 41.2289 14.0501 41.8312 13.124C41.9575 12.9303 42.0749 12.731 42.183 12.5266C42.6087 11.724 42.9066 10.86 43.0662 9.96577C43.338 8.43198 43.1948 6.85351 42.6514 5.3935C42.4981 4.97879 42.3098 4.57783 42.0885 4.19495C42.0524 4.13391 41.9589 4.00629 41.9256 3.94987L44.5724 3.9508ZM34.996 12.9511H34.9914C32.5732 12.9511 30.6142 10.9359 30.6142 8.45093C30.6142 5.96504 32.5732 3.9508 34.9914 3.9508C35.0302 3.9508 35.07 3.9508 35.108 3.95357H35.1265C35.4821 3.96405 35.8349 4.01968 36.1764 4.11911C38.0187 4.64995 39.3685 6.38768 39.3685 8.45093C39.3685 10.7611 37.6743 12.6662 35.4931 12.9205L35.3793 12.9335H35.3765C35.2737 12.9431 35.1705 12.9486 35.0673 12.9501L34.996 12.9511Z" fill="#828282"/>
<path fill-rule="evenodd" clip-rule="evenodd" d="M35.108 27.7148C30.0865 27.7148 26 23.5143 26 18.351C26 16.5005 26.5249 14.7729 27.4313 13.3201C28.3201 14.834 29.3208 15.6765 30.2753 16.2369C29.9969 16.907 29.854 17.6255 29.855 18.351C29.855 21.3289 32.2121 23.7519 35.108 23.7519C38.0058 23.7519 40.361 21.3289 40.361 18.351C40.3635 17.3334 40.082 16.3351 39.5481 15.4684C38.6214 13.9637 36.9902 12.9603 35.1339 12.9511H35.0617L34.9488 12.9529C33.0962 12.9353 31.5187 11.7359 30.8975 10.0509C32.1906 9.35205 33.6378 8.9865 35.108 8.98732C36.5029 8.98613 37.8783 9.3151 39.1213 9.94728C40.3241 10.5581 41.377 11.4265 42.2052 12.4905C43.5134 14.1641 44.2214 16.2277 44.216 18.351C44.216 23.5143 40.1305 27.7148 35.108 27.7148Z" fill="#828282"/>
<path fill-rule="evenodd" clip-rule="evenodd" d="M42.7995 5.82539C41.1646 5.05965 38.452 4.4354 36.1819 4.11911C35.8386 4.01903 35.484 3.96309 35.1265 3.95265L41.9256 3.9508C41.9598 4.00629 42.0524 4.13576 42.0885 4.1968C42.3107 4.57689 42.4959 4.98011 42.6514 5.39443C42.7042 5.53685 42.7532 5.68112 42.7995 5.82539ZM39.5481 15.4647C39.545 15.4678 39.5416 15.4706 39.538 15.473L39.5185 15.4869L39.5167 15.4869L39.4972 15.5008C39.4361 15.5405 39.3769 15.5812 39.3139 15.621C39.0171 15.8092 38.7085 15.9782 38.39 16.1269C37.9419 15.0421 36.7263 13.6456 35.1608 12.989L35.07 12.952C35.1003 12.9511 35.1305 12.9511 35.1608 12.952C37.0077 12.9677 38.6242 13.9665 39.5481 15.4647Z" fill="#828282"/>
<path fill-rule="evenodd" clip-rule="evenodd" d="M63.2884 12.9289V16.7502H67.822C67.1591 18.5859 65.3844 20.1332 62.7922 20.1332C59.1278 20.1332 56.8458 17.3476 56.8458 14.1034C56.8458 10.0721 59.3815 7.58253 62.9366 7.58253C64.404 7.58253 66.3037 8.00425 67.4258 9.84092H71.9659C70.5494 5.6654 66.7861 3.61047 62.8783 3.61047C57.2124 3.61047 52.7297 7.89882 52.7297 14.1321C52.7297 19.581 56.9004 24.133 62.7653 24.133C65.4085 24.133 67.3869 23.2267 68.7136 21.7867V23.7261H72.451V12.9298H63.2884V12.9289ZM84.3336 18.7691C83.431 19.9001 82.3598 20.5077 81.3729 20.5077C79.5399 20.5077 78.4687 19.3202 78.4687 17.1173V9.84092H74.5489V17.4937C74.5489 21.5231 76.9171 24.1616 80.4694 24.1616C81.9923 24.1616 83.2329 23.6391 84.3327 22.7402V23.7261H88.2516V9.84092H84.3327L84.3336 18.7691ZM100.502 10.6538C99.4584 9.95745 98.1901 9.55146 96.6671 9.55146C92.9454 9.55146 89.9282 12.7106 89.9282 16.7983C89.9282 20.8277 92.9454 24.0155 96.6671 24.0155C98.1901 24.0155 99.4584 23.6105 100.502 22.915V23.7261H104.421V9.84092H100.502V10.6538ZM100.502 19.0012C99.6278 20.1896 98.4715 20.5956 97.3152 20.5956C95.2571 20.5956 93.8194 18.8273 93.8194 16.7983C93.8194 14.7397 95.2571 12.9427 97.3152 12.9427C98.4724 12.9427 99.6278 13.3487 100.502 14.5667V19.0012ZM110.785 9.84092H106.865V23.7261H110.784V15.4351C111.911 14.1589 113.406 13.5208 115.521 13.4347V9.6088C113.519 9.6088 111.996 10.2469 110.784 11.4066V9.84L110.785 9.84092ZM126.458 10.6538C125.415 9.95745 124.147 9.55146 122.625 9.55146C118.903 9.55146 115.885 12.7402 115.885 16.7696C115.885 20.8564 118.903 24.0155 122.625 24.0155C124.147 24.0155 125.415 23.6105 126.459 22.915V23.7261H130.378V3.89161H126.459V10.6529L126.458 10.6538ZM126.458 19.0012C125.584 20.2182 124.429 20.6242 123.273 20.6242C121.215 20.6242 119.776 18.8273 119.776 16.7696C119.776 14.7397 121.215 12.9723 123.273 12.9723C124.429 12.9723 125.584 13.3774 126.459 14.5667L126.458 19.0012ZM149.464 10.6538C148.42 9.95745 147.152 9.55146 145.629 9.55146C141.907 9.55146 138.89 12.7106 138.89 16.7983C138.89 20.8277 141.907 24.0155 145.63 24.0155C147.152 24.0155 148.42 23.6105 149.464 22.915V23.7261H153.382V9.84092H149.464V10.6529L149.464 10.6538ZM149.464 19.0012C148.59 20.1896 147.434 20.5956 146.278 20.5956C144.22 20.5956 142.781 18.8273 142.781 16.7983C142.781 14.7397 144.22 12.9427 146.278 12.9427C147.434 12.9427 148.59 13.3487 149.464 14.5667V19.0012H149.464ZM163.489 9.40626C161.966 9.40626 160.726 9.92786 159.626 10.8268V9.84H155.707V23.7251H159.626V14.797C160.529 13.6669 161.6 13.0583 162.587 13.0583C164.42 13.0583 165.491 14.2467 165.491 16.4496V23.7251H169.411V16.1019C169.411 12.0429 167.042 9.40626 163.489 9.40626ZM133.132 23.7261H137.051V9.84H133.132V23.7261ZM133.132 7.92101H137.051V3.89346H133.132V7.92101ZM174 8.84305C174 9.64116 173.361 10.2377 172.602 10.2377C171.844 10.2377 171.206 9.64116 171.206 8.84305C171.206 8.04586 171.844 7.44289 172.603 7.44289C173.362 7.44289 174 8.04586 174 8.84305ZM173.689 8.84305C173.691 8.55078 173.577 8.26962 173.372 8.06062C173.168 7.85162 172.889 7.73167 172.596 7.7268C172.016 7.7268 171.511 8.21695 171.511 8.84305C171.511 9.4636 172.016 9.9482 172.596 9.9482C173.183 9.9482 173.689 9.4636 173.689 8.84305ZM172.856 9.00952L173.195 9.45805H172.908L172.592 9.03819H172.367V9.45805H172.143V8.16331H172.671C172.947 8.16331 173.155 8.34088 173.155 8.60722C173.155 8.80791 173.034 8.95033 172.856 9.00952ZM172.666 8.82548C172.816 8.82548 172.919 8.7367 172.919 8.60075C172.919 8.47128 172.816 8.3825 172.666 8.3825H172.367V8.8264L172.666 8.82548Z" fill="#828282"/>
</svg>
