<svg width="200" height="50" viewBox="0 0 200 50" fill="none" xmlns="http://www.w3.org/2000/svg">
<g clip-path="url(#clip0_8679_2426)">
<mask id="mask0_8679_2426" style="mask-type:luminance" maskUnits="userSpaceOnUse" x="0" y="0" width="200" height="50">
<path d="M0 0V50H200V0H0Z" fill="white"/>
</mask>
<g mask="url(#mask0_8679_2426)">
<path d="M200 50H0V0H200V50Z" fill="#181818"/>
</g>
<mask id="mask1_8679_2426" style="mask-type:luminance" maskUnits="userSpaceOnUse" x="0" y="0" width="200" height="50">
<path d="M0 0V50H200V0H0Z" fill="white"/>
</mask>
<g mask="url(#mask1_8679_2426)">
<path d="M54.3803 27.0954V21.9839C58.6717 21.6256 58.6378 27.5132 54.3803 27.0954ZM60.6234 19.8396C59.0357 18.2831 56.8744 17.8511 54.1367 17.7477C54.1367 17.7477 50.433 17.8186 49.5039 17.8186V31.1347C52.4739 31.1347 56.5912 31.401 58.6604 30.5413C62.5114 28.9366 63.8739 23.032 60.6234 19.8396Z" fill="#828282"/>
</g>
<mask id="mask2_8679_2426" style="mask-type:luminance" maskUnits="userSpaceOnUse" x="0" y="0" width="200" height="50">
<path d="M0 0V50H200V0H0Z" fill="white"/>
</mask>
<g mask="url(#mask2_8679_2426)">
<path d="M131.317 17.9744H136.074C138.422 22.5023 140.116 24.7528 140.116 24.7528V17.9744C141.667 17.9744 143.275 17.9928 144.831 17.9928C144.831 21.3013 144.813 26.0728 144.813 31.1758H139.88C139.072 29.8062 137.519 27.0798 136.056 24.8718C136.056 25.9709 136.077 29.5881 136.074 31.1758H131.317C131.28 29.3813 131.386 21.2857 131.317 17.9744Z" fill="#828282"/>
</g>
<mask id="mask3_8679_2426" style="mask-type:luminance" maskUnits="userSpaceOnUse" x="0" y="0" width="200" height="50">
<path d="M0 0V50H200V0H0Z" fill="white"/>
</mask>
<g mask="url(#mask3_8679_2426)">
<path d="M32.2181 18.099L27.312 26.7173H37.3098L32.3045 17.9177L32.2181 18.099ZM34.9488 13.3133L42.8533 26.7173L39.9753 31.1319H23.9851L21.4258 26.8518L27.1279 17.8087H32.034L32.2861 17.7973L29.8586 13.3133H34.9488Z" fill="#828282"/>
</g>
<mask id="mask4_8679_2426" style="mask-type:luminance" maskUnits="userSpaceOnUse" x="0" y="0" width="200" height="50">
<path d="M0 0V50H200V0H0Z" fill="white"/>
</mask>
<g mask="url(#mask4_8679_2426)">
<path d="M98.1354 17.8187H93.6045H93.6017L88.7891 31.1348H93.4261L95.8693 23.1907L98.311 31.1348H102.948L98.1354 17.8187Z" fill="#828282"/>
</g>
<mask id="mask5_8679_2426" style="mask-type:luminance" maskUnits="userSpaceOnUse" x="0" y="0" width="200" height="50">
<path d="M0 0V50H200V0H0Z" fill="white"/>
</mask>
<g mask="url(#mask5_8679_2426)">
<path d="M163.333 17.8187H158.798L153.988 31.1348H158.625L161.068 23.1907L163.51 31.1348H168.146L163.333 17.8187Z" fill="#828282"/>
</g>
<mask id="mask6_8679_2426" style="mask-type:luminance" maskUnits="userSpaceOnUse" x="0" y="0" width="200" height="50">
<path d="M0 0V50H200V0H0Z" fill="white"/>
</mask>
<g mask="url(#mask6_8679_2426)">
<path d="M72.2127 31.1347H63.1992V17.8214H72.2155V21.3976H68.0133V22.7048H71.7368V26.1677H68.043V27.5019H72.2127V31.1347Z" fill="#828282"/>
</g>
<mask id="mask7_8679_2426" style="mask-type:luminance" maskUnits="userSpaceOnUse" x="0" y="0" width="200" height="50">
<path d="M0 0V50H200V0H0Z" fill="white"/>
</mask>
<g mask="url(#mask7_8679_2426)">
<path d="M112.337 27.0954V21.9839C116.629 21.6256 116.596 27.5132 112.337 27.0954ZM118.579 19.8396C116.993 18.2831 114.831 17.8511 112.094 17.7477C112.094 17.7477 108.39 17.8186 107.461 17.8186V31.1347C110.432 31.1347 114.548 31.401 116.619 30.5413C120.466 28.9366 121.831 23.032 118.579 19.8396Z" fill="#828282"/>
</g>
<mask id="mask8_8679_2426" style="mask-type:luminance" maskUnits="userSpaceOnUse" x="0" y="0" width="200" height="50">
<path d="M0 0V50H200V0H0Z" fill="white"/>
</mask>
<g mask="url(#mask8_8679_2426)">
<path d="M130.17 31.1347H121.156V17.8214H130.173V21.3976H125.969V22.7048H129.694V26.1677H125.997V27.5019H130.17V31.1347Z" fill="#828282"/>
</g>
<mask id="mask9_8679_2426" style="mask-type:luminance" maskUnits="userSpaceOnUse" x="0" y="0" width="200" height="50">
<path d="M0 0V50H200V0H0Z" fill="white"/>
</mask>
<g mask="url(#mask9_8679_2426)">
<path d="M73.3398 31.1319V17.8158H78.1398V26.8221H82.1947V31.1319H73.3398Z" fill="#828282"/>
</g>
<mask id="mask10_8679_2426" style="mask-type:luminance" maskUnits="userSpaceOnUse" x="0" y="0" width="200" height="50">
<path d="M0 0V50H200V0H0Z" fill="white"/>
</mask>
<g mask="url(#mask10_8679_2426)">
<path d="M168.781 31.1319V17.8158H173.577V26.8221H177.636V31.1319H168.781Z" fill="#828282"/>
</g>
<mask id="mask11_8679_2426" style="mask-type:luminance" maskUnits="userSpaceOnUse" x="0" y="0" width="200" height="50">
<path d="M0 0V50H200V0H0Z" fill="white"/>
</mask>
<g mask="url(#mask11_8679_2426)">
<path d="M80.7188 22.1114V17.8214H90.8525V22.1128H88.2564V31.1361H83.2625V22.1114H80.7188Z" fill="#828282"/>
</g>
<mask id="mask12_8679_2426" style="mask-type:luminance" maskUnits="userSpaceOnUse" x="0" y="0" width="200" height="50">
<path d="M0 0V50H200V0H0Z" fill="white"/>
</mask>
<g mask="url(#mask12_8679_2426)">
<path d="M145.832 22.1114V17.8214H155.964V22.1128H153.367V31.1361H148.377V22.1114H145.832Z" fill="#828282"/>
</g>
</g>
<defs>
<clipPath id="clip0_8679_2426">
<rect width="200" height="50" fill="white"/>
</clipPath>
</defs>
</svg>
