<svg width="161" height="41" viewBox="0 0 161 41" fill="none" xmlns="http://www.w3.org/2000/svg">
<path d="M133.229 0C136.962 0 140.36 0.877332 143.421 2.632C146.52 4.34933 148.946 6.75733 150.701 9.856C152.493 12.9547 153.389 16.4453 153.389 20.328C153.389 24.2107 152.493 27.7013 150.701 30.8C148.909 33.8987 146.464 36.3253 143.365 38.08C140.304 39.7973 136.925 40.656 133.229 40.656C129.533 40.656 126.136 39.7973 123.037 38.08C119.938 36.3253 117.493 33.8987 115.701 30.8C113.909 27.7013 113.013 24.2107 113.013 20.328C113.013 16.4453 113.909 12.9547 115.701 9.856C117.493 6.75733 119.938 4.34933 123.037 2.632C126.136 0.877332 129.533 0 133.229 0ZM133.229 10.192C130.429 10.192 128.226 11.1067 126.621 12.936C125.016 14.728 124.213 17.192 124.213 20.328C124.213 23.3893 125.016 25.8347 126.621 27.664C128.226 29.4933 130.429 30.408 133.229 30.408C135.992 30.408 138.176 29.4933 139.781 27.664C141.386 25.8347 142.189 23.3893 142.189 20.328C142.189 17.192 141.386 14.728 139.781 12.936C138.213 11.1067 136.029 10.192 133.229 10.192Z" fill="white"/>
<path d="M90.5101 0.279968C95.5875 0.279968 99.7501 1.51197 102.998 3.97597C106.246 6.43997 108.206 9.76264 108.878 13.944H97.2861C96.6888 12.8613 95.8115 12.0026 94.6541 11.368C93.4968 10.7333 92.1341 10.416 90.5661 10.416C87.8781 10.416 85.7315 11.3306 84.1261 13.16C82.5581 14.952 81.7741 17.36 81.7741 20.384C81.7741 23.8186 82.6141 26.432 84.2941 28.224C86.0115 29.9786 88.5128 30.856 91.7981 30.856C93.6648 30.856 95.3075 30.408 96.7261 29.512C98.1448 28.616 99.2648 27.2906 100.086 25.536H89.1101V17.696H109.214V28.616C107.795 31.9013 105.518 34.72 102.382 37.072C99.2835 39.3866 95.3635 40.544 90.6221 40.544C86.5901 40.544 83.0621 39.704 80.0381 38.024C77.0141 36.3066 74.6808 33.9173 73.0381 30.856C71.4328 27.7946 70.6301 24.304 70.6301 20.384C70.6301 16.464 71.4328 12.992 73.0381 9.96797C74.6808 6.90664 76.9955 4.53597 79.9821 2.85597C82.9688 1.13864 86.4781 0.279968 90.5101 0.279968Z" fill="white"/>
<path d="M46.6586 0C50.392 0 53.7893 0.877332 56.8506 2.632C59.9493 4.34933 62.376 6.75733 64.1306 9.856C65.9226 12.9547 66.8186 16.4453 66.8186 20.328C66.8186 24.2107 65.9226 27.7013 64.1306 30.8C62.3386 33.8987 59.8933 36.3253 56.7946 38.08C53.7333 39.7973 50.3546 40.656 46.6586 40.656C42.9626 40.656 39.5653 39.7973 36.4666 38.08C33.368 36.3253 30.9226 33.8987 29.1306 30.8C27.3386 27.7013 26.4426 24.2107 26.4426 20.328C26.4426 16.4453 27.3386 12.9547 29.1306 9.856C30.9226 6.75733 33.368 4.34933 36.4666 2.632C39.5653 0.877332 42.9626 0 46.6586 0ZM46.6586 10.192C43.8586 10.192 41.656 11.1067 40.0506 12.936C38.4453 14.728 37.6426 17.192 37.6426 20.328C37.6426 23.3893 38.4453 25.8347 40.0506 27.664C41.656 29.4933 43.8586 30.408 46.6586 30.408C49.4213 30.408 51.6053 29.4933 53.2106 27.664C54.816 25.8347 55.6186 23.3893 55.6186 20.328C55.6186 17.192 54.816 14.728 53.2106 12.936C51.6426 11.1067 49.4586 10.192 46.6586 10.192Z" fill="white"/>
<path d="M11.0321 31.92H23.4081V40.264H0.00012207V0.615967H11.0321V31.92Z" fill="white"/>
</svg>
