<svg width="452" height="310" viewBox="0 0 452 310" fill="none" xmlns="http://www.w3.org/2000/svg">
<g clip-path="url(#clip0_8727_2177)">
<rect width="452" height="310" rx="6" fill="#181818"/>
<path d="M286.39 64.5835C335.059 64.5835 374.513 104.503 374.514 153.747C374.514 202.99 335.059 242.911 286.39 242.911C264.577 242.911 244.616 234.891 229.228 221.608C213.839 234.89 193.879 242.911 172.066 242.911C123.397 242.911 83.9424 202.99 83.9424 153.747C83.9426 104.503 123.397 64.5836 172.066 64.5835C193.879 64.5835 213.839 72.603 229.228 85.8853C244.616 72.6027 264.577 64.5835 286.39 64.5835Z" fill="#ED0006"/>
<path d="M286.39 64.5835C335.059 64.5835 374.514 104.503 374.515 153.747C374.515 202.99 335.059 242.911 286.39 242.911C264.577 242.911 244.617 234.89 229.229 221.608C248.176 205.254 260.191 180.92 260.191 153.747C260.191 126.573 248.176 102.239 229.229 85.8853C244.617 72.603 264.577 64.5836 286.39 64.5835Z" fill="#F9A000"/>
<path d="M229.229 85.8848C248.176 102.239 260.191 126.573 260.191 153.747C260.191 180.921 248.175 205.253 229.229 221.607C210.282 205.253 198.267 180.92 198.267 153.747C198.267 126.573 210.281 102.239 229.229 85.8848Z" fill="#FF5E00"/>
</g>
<defs>
<clipPath id="clip0_8727_2177">
<path d="M0 16C0 7.16345 7.16344 0 16 0H436C444.837 0 452 7.16344 452 16V294C452 302.837 444.837 310 436 310H16C7.16345 310 0 302.837 0 294V16Z" fill="white"/>
</clipPath>
</defs>
</svg>
