<svg width="800" height="800" viewBox="0 0 800 800" fill="none" xmlns="http://www.w3.org/2000/svg">
<rect width="800" height="800" rx="80" fill="black"/>
<path d="M507.062 292.312C523.947 292.312 537.938 306.303 537.938 323.188V477.562C537.938 494.93 523.947 508.438 507.062 508.438H290.938C273.57 508.438 260.062 494.93 260.062 477.562V323.188C260.062 306.303 273.57 292.312 290.938 292.312H507.062ZM507.062 315.469H290.938C286.596 315.469 283.219 319.328 283.219 323.188V338.625H514.781V323.188C514.781 319.328 510.922 315.469 507.062 315.469ZM514.781 384.938H283.219V477.562C283.219 481.904 286.596 485.281 290.938 485.281H507.062C510.922 485.281 514.781 481.904 514.781 477.562V384.938Z" fill="#0065FF"/>
<path d="M352.688 450.547C352.688 444.275 347.381 438.969 341.109 438.969H317.953C311.199 438.969 306.375 444.275 306.375 450.547C306.375 457.301 311.199 462.125 317.953 462.125H341.109C347.381 462.125 352.688 457.301 352.688 450.547Z" fill="white"/>
<path d="M445.312 450.547C445.312 444.275 440.006 438.969 433.734 438.969H379.703C372.949 438.969 368.125 444.275 368.125 450.547C368.125 457.301 372.949 462.125 379.703 462.125H433.734C440.006 462.125 445.312 457.301 445.312 450.547Z" fill="white"/>
</svg>
