<svg width="800" height="800" viewBox="0 0 800 800" fill="none" xmlns="http://www.w3.org/2000/svg">
<rect width="800" height="800" rx="80" fill="black"/>
<path d="M508 446.5C508 456.672 501.219 465.391 492.5 468.781V500.75H496.375C502.672 500.75 508 506.078 508 512.375C508 519.156 502.672 524 496.375 524H329.75C307.953 524 291 507.047 291 485.25V314.75C291 293.438 307.953 276 329.75 276H484.75C497.344 276 508 286.656 508 299.25V446.5ZM469.25 500.75V469.75H329.75C321.031 469.75 314.25 477.016 314.25 485.25C314.25 493.969 321.031 500.75 329.75 500.75H469.25ZM484.75 446.5V299.25H329.75C321.031 299.25 314.25 306.516 314.25 314.75V449.891C318.609 447.953 323.938 446.5 329.75 446.5H484.75Z" fill="#0065FF"/>
<path d="M353 341.875C353 348.656 357.844 353.5 364.625 353.5H449.875C456.172 353.5 461.5 348.656 461.5 341.875C461.5 335.578 456.172 330.25 449.875 330.25H364.625C357.844 330.25 353 335.578 353 341.875Z" fill="white"/>
<path d="M353 380.625C353 387.406 357.844 392.25 364.625 392.25H449.875C456.172 392.25 461.5 387.406 461.5 380.625C461.5 374.328 456.172 369 449.875 369H364.625C357.844 369 353 374.328 353 380.625Z" fill="white"/>
</svg>
