<svg width="800" height="800" viewBox="0 0 800 800" fill="none" xmlns="http://www.w3.org/2000/svg">
<rect width="800" height="800" rx="80" fill="black"/>
<path d="M524 400.875C524 469.656 468.297 524.875 400 524.875C331.219 524.875 276 469.656 276 400.875C276 332.578 331.219 276.875 400 276.875C468.297 276.875 524 332.578 524 400.875ZM400 300.125C344.297 300.125 299.25 345.656 299.25 400.875C299.25 456.578 344.297 501.625 400 501.625C455.219 501.625 500.75 456.578 500.75 400.875C500.75 345.656 455.219 300.125 400 300.125Z" fill="#0065FF"/>
<path d="M422.957 352.047C418.598 350.594 413.754 349.141 408.91 348.657V341.875C408.91 336.063 404.551 331.219 398.739 331.219C392.926 331.219 388.082 336.063 388.082 341.875V349.625C385.176 350.594 382.27 351.079 379.848 352.532C371.129 356.407 362.895 363.188 360.957 373.844C358.535 384.985 363.379 395.157 373.067 400.969C379.848 405.329 389.051 408.235 396.317 410.172C397.285 410.657 398.254 410.657 399.707 411.141C405.52 412.594 411.332 414.047 416.176 417.438C421.989 421.313 419.082 428.579 413.27 430.516C408.91 432.454 402.614 433.422 394.379 431.969C388.567 431 383.239 429.063 377.426 427.125C376.457 427.125 375.004 426.641 374.035 426.157C368.707 424.219 362.41 427.125 360.957 432.938C359.02 438.266 361.926 444.079 367.254 446.016C374.035 448.438 381.301 450.375 388.082 451.829V460.547C388.082 466.36 392.926 470.719 398.739 470.719C404.551 470.719 408.91 466.36 408.91 460.547V453.282C413.27 452.797 417.629 451.829 421.504 449.891C430.223 446.5 437.973 439.235 439.91 428.579C441.848 417.438 437.489 406.782 428.285 400.485C421.02 395.157 411.332 392.735 403.582 390.313C402.614 390.313 401.645 389.829 400.192 389.344C394.864 387.891 389.051 386.438 384.207 383.532C378.395 379.657 382.754 373.844 388.082 371.422C393.895 369 401.16 368.516 407.942 369.485L418.114 372.391C418.598 372.391 419.567 372.875 420.051 372.875C425.863 374.329 431.676 371.422 433.129 365.61C434.582 360.282 431.192 354.469 425.864 352.532C424.895 352.532 423.926 352.047 422.957 352.047Z" fill="white"/>
</svg>
