<svg width="80" height="80" viewBox="0 0 80 80" fill="none" xmlns="http://www.w3.org/2000/svg">
<path d="M0 24C0 10.7452 10.7452 0 24 0H56C69.2548 0 80 10.7452 80 24V56C80 69.2548 69.2548 80 56 80H24C10.7452 80 0 69.2548 0 56V24Z" fill="black"/>
<path d="M60 40C60 51.0937 51.0156 60 40 60C28.9063 60 20 51.0937 20 40C20 28.9844 28.9063 20 40 20C51.0156 20 60 28.9844 60 40ZM40 23.75C31.0156 23.75 23.75 31.0937 23.75 40C23.75 48.9844 31.0156 56.25 40 56.25C48.9063 56.25 56.25 48.9844 56.25 40C56.25 31.0937 48.9063 23.75 40 23.75Z" fill="white"/>
<path d="M36.5625 31.5625C36.0156 31.1719 35.2344 31.1719 34.6875 31.5625C34.0625 31.875 33.75 32.5 33.75 33.125V46.875C33.75 47.5781 34.0625 48.2031 34.6875 48.5156C35.2344 48.9062 36.0156 48.8281 36.5625 48.5156L47.8125 41.6406C48.3594 41.3281 48.75 40.7031 48.75 40C48.75 39.375 48.3594 38.75 47.8125 38.4375L36.5625 31.5625Z" fill="white"/>
</svg>
