<svg width="800" height="800" viewBox="0 0 800 800" fill="none" xmlns="http://www.w3.org/2000/svg">
<rect width="800" height="800" rx="80" fill="black"/>
<path d="M452.365 405.694C461.561 406.662 464.95 418.276 458.657 424.567L421.872 460.378L430.584 511.191C431.068 515.063 429.616 519.418 425.744 521.838C422.356 524.257 418 524.741 414.127 522.806L369.113 498.609L323.616 522.806C321.68 523.773 320.227 523.773 318.291 523.773C311.999 523.773 306.191 517.966 307.643 511.191L315.871 460.378L279.57 424.567C272.793 418.276 276.182 406.662 285.378 405.694L336.2 397.951L358.949 351.977C360.885 348.106 364.757 345.686 368.629 345.686C372.986 345.686 376.858 348.106 378.794 351.977L401.543 397.951L452.365 405.694ZM396.703 452.151L424.776 425.051L386.054 419.244L369.113 384.401L351.689 419.244L312.967 425.051L341.04 452.151L334.264 490.866L369.113 472.477L403.479 490.866L396.703 452.151Z" fill="#0065FF"/>
<path d="M400.091 315.199C400.091 316.166 400.575 317.134 401.543 317.618L425.744 327.781L435.424 351.977C436.392 352.945 437.36 353.913 438.328 353.913C439.78 353.913 440.748 352.945 441.233 351.977L451.397 327.781L475.598 317.618C476.566 317.134 477.05 316.166 477.05 314.715C477.05 313.747 476.566 312.779 475.598 311.811L451.397 302.132L441.233 277.936C440.748 276.968 439.78 276 438.812 276C437.36 276 436.392 276.968 435.908 277.936L425.744 302.132L401.543 312.295C400.575 312.779 400.091 313.747 400.091 315.199Z" fill="white"/>
<path d="M524 384.401C524 383.433 523.032 382.949 522.548 382.465L503.187 374.238L494.959 355.365C494.475 354.397 493.991 353.913 493.023 353.913C492.055 353.913 491.087 354.397 490.603 355.365L482.374 374.238L463.497 382.465C462.529 382.949 461.561 383.917 461.561 384.885C461.561 385.853 462.529 386.337 463.497 386.821L482.374 395.047L490.603 414.405C491.087 414.889 491.571 415.856 492.539 415.856C493.507 415.856 494.475 414.889 494.959 414.405L503.187 395.047L522.064 386.821C523.032 386.337 524 385.369 524 384.401Z" fill="white"/>
</svg>
