<svg width="800" height="800" viewBox="0 0 800 800" fill="none" xmlns="http://www.w3.org/2000/svg">
<rect width="800" height="800" rx="80" fill="black"/>
<path d="M488.467 513.277C493.474 513.277 497.23 519.549 493.474 524.567C467.187 556.556 427.757 576 384.571 576C307.588 576 245 513.277 245 435.5C245 358.35 307.588 295 385.197 295C392.708 295 403.974 296.254 410.858 297.509C417.117 298.763 418.369 306.917 412.736 310.054C378.312 329.498 357.658 365.877 357.658 405.393C357.658 467.489 407.103 515.786 466.562 515.786C473.446 515.786 480.331 515.158 487.216 513.904C487.842 513.277 487.842 513.277 488.467 513.277ZM384.571 545.893C398.341 545.893 411.484 544.011 424.002 538.993C367.673 520.804 326.99 468.116 326.99 405.393C326.99 379.049 334.501 353.333 347.644 332.007C305.085 347.06 275.042 387.83 275.042 435.5C275.042 496.342 323.861 545.893 384.571 545.893Z" fill="white"/>
<path d="M492.503 295H457.539C456.498 295 455.666 294.475 455.25 293.636C454.834 292.692 454.938 291.643 455.562 290.908L487.092 253.036H457.539C456.082 253.036 455.042 251.987 455.042 250.518C455.042 249.154 456.082 248 457.539 248H492.503C493.439 248 494.272 248.629 494.688 249.469C495.104 250.413 495 251.462 494.376 252.196L462.846 289.964H492.503C493.855 289.964 495 291.118 495 292.482C495 293.951 493.855 295 492.503 295Z" fill="#0065FF"/>
<path d="M552.252 256H527.777C527.049 256 526.466 255.643 526.175 255.071C525.883 254.429 525.956 253.714 526.393 253.214L548.464 227.429H527.777C526.758 227.429 526.029 226.714 526.029 225.714C526.029 224.786 526.758 224 527.777 224H552.252C552.907 224 553.49 224.429 553.781 225C554.073 225.643 554 226.357 553.563 226.857L531.492 252.571H552.252C553.199 252.571 554 253.357 554 254.286C554 255.286 553.199 256 552.252 256Z" fill="#0065FF"/>
</svg>
