<svg width="800" height="800" viewBox="0 0 800 800" fill="none" xmlns="http://www.w3.org/2000/svg">
<rect width="800" height="800" rx="80" fill="black"/>
<path d="M400 277C468.297 277 524 332.703 524 401C524 469.781 468.297 525 400 525C331.219 525 276 469.781 276 401C276 332.703 331.219 277 400 277ZM299.25 401C299.25 456.703 344.297 501.75 400 501.75C455.219 501.75 500.75 456.703 500.75 401C500.75 345.781 455.219 300.25 400 300.25C344.297 300.25 299.25 345.781 299.25 401Z" fill="#0065FF"/>
<path d="M400 323.5C393.219 323.5 388.375 328.828 388.375 335.125V401C388.375 404.875 390.312 408.75 393.219 410.688L439.719 441.688C445.047 445.562 452.312 444.109 455.703 438.781C459.578 433.453 458.125 426.188 452.797 422.312L411.625 395.188V335.125C411.625 328.828 406.297 323.5 400 323.5Z" fill="white"/>
</svg>
