<svg width="800" height="800" viewBox="0 0 800 800" fill="none" xmlns="http://www.w3.org/2000/svg">
<rect width="800" height="800" rx="80" fill="black"/>
<path d="M433.07 271.909C433.07 273.018 433.624 274.126 434.733 274.681L462.454 286.324L473.542 314.045C474.651 315.154 475.76 316.263 476.869 316.263C478.532 316.263 479.641 315.154 480.195 314.045L491.838 286.324L519.559 274.681C520.667 274.126 521.222 273.018 521.222 271.354C521.222 270.245 520.667 269.137 519.559 268.028L491.838 256.939L480.195 229.218C479.641 228.109 478.532 227 477.423 227C475.76 227 474.651 228.109 474.097 229.218L462.454 256.939L434.733 268.582C433.624 269.137 433.07 270.245 433.07 271.909Z" fill="#0065FF"/>
<path d="M575 351.192C575 350.083 573.891 349.529 573.337 348.974L551.16 339.549L541.735 317.926C541.181 316.817 540.626 316.263 539.518 316.263C538.409 316.263 537.3 316.817 536.745 317.926L527.32 339.549L505.698 348.974C504.589 349.529 503.481 350.638 503.481 351.746C503.481 352.855 504.589 353.41 505.698 353.964L527.32 363.389L536.745 385.567C537.3 386.121 537.854 387.23 538.963 387.23C540.072 387.23 541.181 386.121 541.735 385.567L551.16 363.389L572.782 353.964C573.891 353.41 575 352.301 575 351.192Z" fill="#0065FF"/>
<path d="M478.079 384.933C482.508 404.624 478.571 424.808 467.251 440.561C460.36 450.406 456.423 462.714 454.946 479.451C453.47 495.696 451.009 517.357 446.087 539.017L443.134 553.293C440.673 564.123 430.83 572 419.509 572C408.189 572 398.838 564.616 395.885 553.786L382.104 496.189C381.119 491.758 373.737 491.758 372.752 496.189L358.971 553.786C356.511 564.616 346.667 572 335.347 572C324.027 572 314.675 564.616 311.722 553.293L308.769 539.017C303.847 517.849 301.879 497.173 299.91 479.451C298.433 462.714 294.496 450.406 287.605 440.561C276.285 424.316 272.348 404.624 276.778 384.933C282.191 362.288 300.402 343.581 322.55 337.182C334.362 334.228 346.175 336.197 358.479 342.597L377.674 355.396C380.627 352.935 385.057 349.981 386.041 349.489C401.791 337.674 417.541 333.736 432.306 337.182C454.454 343.581 472.665 362.288 478.079 384.933ZM448.056 426.777C455.439 416.439 457.899 403.64 454.946 390.348C451.501 376.072 440.181 363.765 425.908 360.319C418.525 358.35 410.158 360.811 400.314 368.195C399.822 368.688 399.33 369.18 398.838 369.672L399.822 370.165C405.236 373.611 406.713 380.995 403.268 386.41C399.822 391.825 392.44 393.302 387.026 389.856L346.175 362.78C340.269 359.827 334.362 358.842 328.949 360.319C314.675 363.765 303.355 376.072 299.91 390.348C296.957 403.64 299.418 416.439 306.8 427.269C316.152 440.561 321.566 456.314 323.535 477.482C325.011 494.22 327.472 514.403 331.902 534.587L334.855 548.37L350.112 490.774C353.065 477.974 364.385 469.113 377.182 469.113C390.471 469.113 401.791 477.974 404.744 490.774L419.017 547.878L422.955 534.094C427.384 513.418 429.845 492.25 431.322 476.99C433.29 455.822 438.704 440.069 448.056 426.777Z" fill="white"/>
</svg>
