<svg width="200" height="63" viewBox="0 0 200 63" fill="none" xmlns="http://www.w3.org/2000/svg">
<path d="M10.0484 59.9843C12.0378 60.6657 14.1323 61.0327 16.3818 61.0327C25.9087 61.0327 32.556 54.1109 32.556 40.9511V1.73107L36.1684 0V41.6325C36.1684 55.0553 29.2586 62.8677 19.4703 62.8677C16.0692 62.8677 12.8756 61.8193 10.0484 59.9843ZM5.9145 55.9985C8.11274 56.7325 10.311 57.2047 12.2479 57.2047C20.2556 57.2047 25.5949 52.1718 25.5949 40.7932V4.71978L29.1536 3.04127V41.1077C29.1536 53.0098 23.134 59.0924 14.76 59.0924C11.6714 59.0924 8.5304 57.9388 5.9145 55.9985ZM3.40115 52.4336C5.33806 53.0098 7.11741 53.3768 8.68792 53.3768C14.9175 53.3768 18.7376 49.9685 18.7376 41.0024V7.76106L22.245 6.08259V40.4788C22.245 50.546 17.6385 55.1079 11.0437 55.1079C8.26904 55.1079 5.65193 54.1635 3.40115 52.4336ZM15.4402 41.9469V9.1239L0 16.0971V42.7335C0 47.8191 3.19234 51.2274 7.90267 51.2274C12.5618 51.2274 15.4402 47.7665 15.4402 41.9469Z" fill="#828282"/>
<path d="M56.0485 9.06763V21.3055C56.0485 25.8249 58.7157 29.3547 63.8199 29.3547C68.1988 29.3547 71.4924 26.1217 71.4924 21.2065V9.39832C71.4924 8.11194 72.349 7.05598 73.797 6.95701L74.2584 6.92322V5.76955H66.5858V6.92322L67.0797 6.95701C68.4952 7.05598 69.3842 8.07811 69.3842 9.39832V20.8445C69.3842 24.5723 67.4423 26.847 64.4126 26.847C61.3503 26.847 59.5384 24.4395 59.5384 20.8107V9.06763C59.5384 7.78124 60.2299 7.05598 61.6791 6.95701L62.1405 6.92322V5.76955H53.4138V6.92322L53.9078 6.95701C55.3232 7.05598 56.0485 7.74868 56.0485 9.06763Z" fill="#828282"/>
<path d="M66.4071 35.1718L66.901 35.2044C68.1189 35.2708 69.0417 35.7656 69.0417 37.1509V44.3421H60.4138V37.1509C60.4138 35.7656 61.3366 35.3046 62.5545 35.2044L63.016 35.1718V34.0169H54.2893V35.1718L54.7832 35.2044C56.0011 35.2708 56.9239 35.7656 56.9239 37.1509V53.9745C56.9239 55.3599 56.0011 55.8547 54.7832 55.9198L54.2893 55.9536V57.1073H63.016V55.9536L62.5545 55.9198C61.3366 55.8209 60.4138 55.3599 60.4138 53.9745V46.1233H69.0417V53.9745C69.0417 55.3599 68.1189 55.8547 66.901 55.9198L66.4071 55.9536V57.1073H75.1338V55.9536L74.6724 55.9198C73.4545 55.8209 72.5316 55.3599 72.5316 53.9745V37.1509C72.5316 35.7656 73.4545 35.3046 74.6724 35.2044L75.1338 35.1718V34.0169H66.4071" fill="#828282"/>
<path d="M74.2249 12.5314V13.6199L74.8838 13.6525C75.9042 13.7189 76.5306 14.2137 76.5306 15.599V25.7589C76.5306 27.1442 75.8379 27.639 74.7188 27.7054L74.2249 27.7379V28.859H82.0287V27.7379L81.5686 27.7054C80.4482 27.639 79.7567 27.1442 79.7567 25.7589V20.3489C79.823 16.3907 81.5348 14.0158 83.5442 14.0158C85.091 14.0158 86.1126 15.0717 86.1126 17.1159V25.7589C86.1126 27.1442 85.4211 27.639 84.3007 27.7054L83.8068 27.7379V28.859H91.6107V27.7379L91.1505 27.7054C90.0314 27.639 89.3387 27.1442 89.3387 25.7589V16.7539C89.3387 14.1811 87.7582 12.0367 84.6296 12.0367C82.4238 12.0367 80.5145 13.3556 79.7567 15.698V12.1031" fill="#828282"/>
<path d="M119.272 29.1894C122.597 29.1894 124.475 26.9135 125.231 24.3406L123.816 23.9448C123.157 25.726 122.005 27.1114 119.699 27.1114C117.032 27.1114 115.22 24.5724 115.22 20.5465H125.463V19.5908C125.463 15.3357 122.959 11.9049 118.942 11.9049C114.629 11.9049 111.763 16.0272 111.763 20.5465C111.763 25.0659 114.53 29.1894 119.272 29.1894ZM118.909 13.785C120.72 13.785 121.873 15.4673 122.005 18.9307H115.287C115.617 15.7316 116.933 13.785 118.909 13.785Z" fill="#828282"/>
<path d="M103.07 25.1652C103.07 27.7381 104.618 29.1898 107.088 29.1898C109.392 29.1898 110.908 27.5076 111.599 25.0988L110.414 24.7694C109.953 26.1548 109.195 27.0128 108.141 27.0128C106.758 27.0128 106.298 25.9894 106.298 24.802V14.1148H110.809V12.3988H106.298V7.31951H104.651C104.024 11.1462 102.082 12.5315 100.041 12.9599V14.1148H103.07" fill="#828282"/>
<path d="M96.1555 9.43047C97.2746 9.43047 98.2625 8.47478 98.2625 7.22092C98.2625 6.03347 97.2746 5.07647 96.1555 5.07647C95.0038 5.07647 94.0485 6.03347 94.0485 7.22092C94.0485 8.47478 95.0038 9.43047 96.1555 9.43047Z" fill="#828282"/>
<path d="M94.6411 15.599V25.7588C94.6411 27.1442 93.9496 27.639 92.8293 27.7053L92.3353 27.7379V28.859H100.14V27.7379L99.6791 27.7053C98.5599 27.639 97.8685 27.1442 97.8685 25.7588V12.103L92.1715 12.5314V13.6199L92.9943 13.6525C94.0147 13.6863 94.6411 14.2136 94.6411 15.599Z" fill="#828282"/>
<path d="M133.858 29.1894C136.031 29.1894 137.71 28.0683 138.436 26.1556V28.8587H143.935V27.7389L143.474 27.7051C142.354 27.6387 141.663 27.1439 141.663 25.7586V5.34001L136.065 5.83477V6.92326L136.789 6.95709C137.809 6.98966 138.436 7.51699 138.436 8.90238V14.8397C137.71 12.9933 136.031 11.9049 133.858 11.9049C129.544 11.9049 127.108 16.0271 127.108 20.5465C127.108 25.0659 129.544 29.1894 133.858 29.1894ZM134.418 13.785C136.855 13.785 138.436 16.4242 138.436 20.5465C138.436 24.67 136.855 27.3093 134.418 27.3093C132.113 27.3093 130.598 24.7039 130.598 20.5465C130.598 16.3904 132.113 13.785 134.418 13.785Z" fill="#828282"/>
<path d="M182.876 40.2185C180.967 40.2185 179.32 41.4723 178.596 43.7145V40.3513L173.063 40.7797V41.8682L173.722 41.9007C174.744 41.9671 175.369 42.4619 175.369 43.8473V54.0071C175.369 55.3924 174.676 55.8872 173.557 55.9536L173.063 55.9862V57.1072H180.868V55.9862L180.407 55.9536C179.288 55.8872 178.596 55.3924 178.596 54.0071V48.4656C178.661 44.3421 180.439 41.7692 182.612 41.7692C183.106 41.7692 183.437 41.9007 183.699 42.1976C183.14 42.4945 182.777 43.0556 182.777 43.7483C182.777 44.7053 183.568 45.4969 184.523 45.4969C185.478 45.4969 186.269 44.7053 186.269 43.583C186.269 41.5049 184.721 40.2185 182.876 40.2185Z" fill="#828282"/>
<path d="M193.479 40.153C189.166 40.153 186.3 44.2753 186.3 48.7946C186.3 53.314 189.066 57.4375 193.809 57.4375C197.134 57.4375 199.011 55.1616 199.769 52.5887L198.353 52.1929C197.694 53.9741 196.541 55.3595 194.237 55.3595C191.57 55.3595 189.758 52.8192 189.758 48.7946H200V47.8389C200 43.5838 197.497 40.153 193.479 40.153ZM189.824 47.1788C190.154 43.9797 191.471 42.0331 193.447 42.0331C195.257 42.0331 196.41 43.7154 196.541 47.1788" fill="#828282"/>
<path d="M170.265 54.3702V45.7599C170.265 42.2313 168.058 40.152 164.337 40.152C161.143 40.152 158.311 42.2639 158.311 44.6713C158.311 45.6947 159.069 46.4864 160.056 46.4864C161.012 46.4864 161.802 45.6947 161.802 44.7377C161.802 44.0776 161.439 43.4839 160.913 43.187C161.506 42.3628 162.558 41.8681 163.844 41.8681C165.852 41.8681 167.07 43.3849 167.07 45.9252V46.6843L162.197 48.6959C158.936 50.0487 157.817 51.2362 157.817 53.3806C157.817 55.8545 159.595 57.4378 162.395 57.4378C164.502 57.4378 166.247 56.1514 167.037 54.2049V54.6996C167.037 56.3818 168.223 57.4052 170.199 57.4052C170.989 57.4052 171.614 57.305 172.273 57.1071V55.9861C170.89 56.1514 170.265 55.6241 170.265 54.3702ZM167.037 50.6425C166.872 53.5447 165.424 55.4913 163.415 55.4913C161.966 55.4913 161.044 54.5017 161.044 52.9836C161.044 51.632 161.768 50.5761 163.152 49.9824L167.07 48.235" fill="#828282"/>
<path d="M124.032 53.0171C123.571 54.4025 122.813 55.2606 121.76 55.2606C120.377 55.2606 119.916 54.2384 119.916 53.051V42.3626H124.427V40.6478H119.916V35.5672H118.269C117.644 39.3939 115.701 40.7793 113.659 41.209V42.3626H116.689V53.413C116.689 55.987 118.237 57.4376 120.706 57.4376C123.012 57.4376 124.526 55.7553 125.218 53.3478" fill="#828282"/>
<path d="M103.156 54.3702V45.7599C103.156 42.2313 100.949 40.152 97.2276 40.152C94.034 40.152 91.2018 42.2639 91.2018 44.6713C91.2018 45.6947 91.9596 46.4864 92.9474 46.4864C93.9027 46.4864 94.693 45.6947 94.693 44.7377C94.693 44.0776 94.3303 43.4839 93.8039 43.187C94.3966 42.3628 95.4495 41.8681 96.7349 41.8681C98.7431 41.8681 99.961 43.3849 99.961 45.9252V46.6843L95.0881 48.6959C91.827 50.0487 90.7079 51.2362 90.7079 53.3806C90.7079 55.8545 92.486 57.4378 95.2857 57.4378C97.3926 57.4378 99.1382 56.1514 99.9285 54.2049V54.6996C99.9285 56.3818 101.114 57.4052 103.09 57.4052C103.88 57.4052 104.505 57.305 105.164 57.1071V55.9861C103.781 56.1514 103.156 55.6241 103.156 54.3702ZM99.9285 50.6425C99.7634 53.5447 98.3155 55.4913 96.306 55.4913C94.858 55.4913 93.9352 54.5017 93.9352 52.9836C93.9352 51.632 94.6592 50.5761 96.0434 49.9824L99.961 48.235" fill="#828282"/>
<path d="M151.265 55.3595C148.597 55.3595 146.785 52.8192 146.785 48.7946C146.785 44.7049 148.564 42.0995 151.232 42.0995C152.417 42.0995 153.339 42.4941 153.898 43.2206C153.405 43.55 153.075 44.1112 153.075 44.7375C153.075 45.6945 153.865 46.4861 154.821 46.4861C155.808 46.4861 156.566 45.6945 156.566 44.5721C156.566 42.593 154.591 40.153 151.067 40.153C146.16 40.153 143.328 44.2765 143.328 48.7946C143.328 53.314 146.094 57.4376 150.837 57.4376C154.097 57.4376 155.94 55.2606 156.665 52.7867L155.248 52.3583C154.623 54.0405 153.503 55.3595 151.265 55.3595Z" fill="#828282"/>
<path d="M111.487 54.0069V33.5884L105.889 34.0832V35.1717L106.613 35.2042C107.634 35.2381 108.259 35.7654 108.259 37.1508V54.0069C108.259 55.3923 107.568 55.8871 106.449 55.9535L105.955 55.986V57.1071H113.759V55.986L113.297 55.9535C112.178 55.8871 111.487 55.3923 111.487 54.0069Z" fill="#828282"/>
<path d="M140.332 54.0069V45.002C140.332 42.4292 138.752 40.2848 135.623 40.2848C133.417 40.2848 131.507 41.6038 130.749 43.9461V33.5884L125.152 34.0832V35.1717L125.876 35.2042C126.896 35.2381 127.523 35.7654 127.523 37.1508V54.0069C127.523 55.3923 126.831 55.8871 125.711 55.9535L125.217 55.986V57.1071H133.022V55.986L132.561 55.9535C131.44 55.8871 130.749 55.3923 130.749 54.0069V48.597C130.815 44.6388 132.528 42.2638 134.537 42.2638C136.083 42.2638 137.105 43.3198 137.105 45.3653V54.0069C137.105 55.3923 136.413 55.8871 135.294 55.9535L134.8 55.986V57.1071H142.604V55.986L142.143 55.9535C141.024 55.8871 140.332 55.3923 140.332 54.0069Z" fill="#828282"/>
<path d="M82.9373 40.153C78.6234 40.153 75.7587 44.2753 75.7587 48.7946C75.7587 53.314 78.5246 57.4375 83.2662 57.4375C86.5923 57.4375 88.4692 55.1616 89.2269 52.5887L87.8102 52.1929C87.1525 53.9741 85.9996 55.3595 83.6951 55.3595C81.028 55.3595 79.2161 52.8192 79.2161 48.7946H89.457V47.8389C89.457 43.5838 86.9549 40.153 82.9373 40.153ZM79.2824 47.1788C79.6125 43.9797 80.9292 42.0331 82.9048 42.0331C84.7154 42.0331 85.8683 43.7154 85.9996 47.1788" fill="#828282"/>
</svg>
