<svg width="452" height="310" viewBox="0 0 452 310" fill="none" xmlns="http://www.w3.org/2000/svg">
<g clip-path="url(#clip0_8727_2178)">
<rect width="452" height="310" rx="6" fill="#181818"/>
<path fill-rule="evenodd" clip-rule="evenodd" d="M137.218 210.002H109.835L89.3017 131.651C88.3271 128.047 86.2577 124.861 83.2137 123.359C75.6171 119.585 67.2462 116.582 58.1143 115.067V112.051H102.225C108.313 112.051 112.879 116.582 113.64 121.844L124.294 178.362L151.663 112.051H178.285L137.218 210.002ZM193.504 210.002H167.644L188.938 112.051H214.799L193.504 210.002ZM248.256 139.186C249.017 133.911 253.583 130.894 258.91 130.894C267.281 130.137 276.399 131.651 284.009 135.412L288.575 114.323C280.965 111.306 272.594 109.792 264.998 109.792C239.898 109.792 221.635 123.359 221.635 142.19C221.635 156.515 234.571 164.036 243.703 168.568C253.583 173.086 257.388 176.102 256.627 180.621C256.627 187.398 249.017 190.415 241.42 190.415C232.288 190.415 223.157 188.155 214.799 184.382L210.233 205.484C219.365 209.245 229.244 210.76 238.376 210.76C266.52 211.504 284.009 197.949 284.009 177.604C284.009 151.983 248.256 150.482 248.256 139.186ZM374.514 210.002L353.981 112.051H331.925C327.359 112.051 322.793 115.067 321.271 119.585L283.248 210.002H309.87L315.183 195.69H347.893L350.937 210.002H374.514ZM335.73 138.429L343.327 175.345H322.032L335.73 138.429Z" fill="white"/>
</g>
<defs>
<clipPath id="clip0_8727_2178">
<path d="M0 16C0 7.16345 7.16344 0 16 0H436C444.837 0 452 7.16344 452 16V294C452 302.837 444.837 310 436 310H16C7.16345 310 0 302.837 0 294V16Z" fill="white"/>
</clipPath>
</defs>
</svg>
